<svg id="Layer_1" data-name="Layer 1" xmlns="http://www.w3.org/2000/svg" viewBox="0 0 122.88 113.4"><defs><style>.cls-1{fill:#de9c2d;fill-rule:evenodd;}</style></defs><title>automotive-gear-oil</title><path d="M66.61,28A3.9,3.9,0,0,0,61,28l-4.25,4.24a28.46,28.46,0,0,0-3.61-2,36.91,36.91,0,0,0-3.85-1.5V22.24a3.89,3.89,0,0,0-3.93-3.93H37.19a3.83,3.83,0,0,0-2.75,1.14,3.76,3.76,0,0,0-1.17,2.79v6a28.58,28.58,0,0,0-4,1.22,30,30,0,0,0-3.67,1.69l-4.71-4.65A3.62,3.62,0,0,0,18.2,25.3a3.87,3.87,0,0,0-2.79,1.18L9.68,32.23a3.89,3.89,0,0,0,0,5.58l4.24,4.26a28.34,28.34,0,0,0-2,3.6,38,38,0,0,0-1.5,3.86H3.93a3.76,3.76,0,0,0-2.79,1.14A3.79,3.79,0,0,0,0,53.46v8.19A3.85,3.85,0,0,0,1.14,64.4a3.75,3.75,0,0,0,2.79,1.17h6a31,31,0,0,0,1.23,4,35,35,0,0,0,1.69,3.74L8.17,77.91A3.61,3.61,0,0,0,7,80.64a3.85,3.85,0,0,0,1.18,2.79l5.75,5.81a4.09,4.09,0,0,0,5.58,0l4.25-4.32a28.46,28.46,0,0,0,3.61,2,39.46,39.46,0,0,0,3.86,1.5v6.53a3.91,3.91,0,0,0,3.93,3.93h8.19a3.84,3.84,0,0,0,2.75-1.15,3.75,3.75,0,0,0,1.16-2.78v-6a29.14,29.14,0,0,0,4-1.22A38.15,38.15,0,0,0,55,86l4.63,4.64a3.8,3.8,0,0,0,5.52,0l5.81-5.74A3.94,3.94,0,0,0,72,82.13a3.89,3.89,0,0,0-1.1-2.79l-4.32-4.26a28.46,28.46,0,0,0,2-3.61,39.28,39.28,0,0,0,1.5-3.85h6.52a3.89,3.89,0,0,0,3.93-3.93V55.5a3.79,3.79,0,0,0-1.14-2.75,3.75,3.75,0,0,0-2.79-1.17h-6a34.17,34.17,0,0,0-1.22-3.93,30,30,0,0,0-1.69-3.71l4.64-4.7a3.61,3.61,0,0,0,1.18-2.73,3.85,3.85,0,0,0-1.18-2.79L66.61,28Zm45.31,44a2.16,2.16,0,0,0-3,.53L107,75.19a16.29,16.29,0,0,0-2.14-.72,21.47,21.47,0,0,0-2.23-.45L102,70.48a2.15,2.15,0,0,0-2.5-1.76l-4.44.78a2.11,2.11,0,0,0-1.39.87A2.05,2.05,0,0,0,93.3,72l.56,3.24a15.63,15.63,0,0,0-2,1A17.38,17.38,0,0,0,90,77.54l-3-2.07a2,2,0,0,0-1.59-.39A2.14,2.14,0,0,0,84,76l-2.57,3.66a2.15,2.15,0,0,0,.53,3l2.7,1.91A16.43,16.43,0,0,0,84,86.73,21,21,0,0,0,83.5,89L80,89.57a2.1,2.1,0,0,0-1.4.89,2.06,2.06,0,0,0-.36,1.62L79,96.52a2.05,2.05,0,0,0,.88,1.38,2,2,0,0,0,1.62.37l3.24-.56a16.29,16.29,0,0,0,1,2A18.47,18.47,0,0,0,87,101.61l-2.08,3a2,2,0,0,0-.39,1.59,2.16,2.16,0,0,0,.91,1.4l3.66,2.61a2.21,2.21,0,0,0,1.62.33,2.15,2.15,0,0,0,1.41-.86l1.9-2.75a13.91,13.91,0,0,0,2.15.72,16.94,16.94,0,0,0,2.23.45l.61,3.54a2.1,2.1,0,0,0,.89,1.41,2.06,2.06,0,0,0,1.62.35l4.44-.77a2.1,2.1,0,0,0,1.38-.88,2,2,0,0,0,.37-1.62l-.56-3.25a16.23,16.23,0,0,0,2-1c.65-.4,1.27-.82,1.87-1.27l3,2.08a2.1,2.1,0,0,0,3-.52l2.61-3.67a2.21,2.21,0,0,0,.33-1.62,2.17,2.17,0,0,0-.86-1.41l-2.75-1.9a13.79,13.79,0,0,0,.72-2.14,19.62,19.62,0,0,0,.46-2.23l3.53-.62a2.13,2.13,0,0,0,1.76-2.5l-.77-4.44a2.12,2.12,0,0,0-.88-1.39,2.1,2.1,0,0,0-1.63-.37l-3.23.57a18.37,18.37,0,0,0-1-2A15.84,15.84,0,0,0,114,80.51l2.08-3a2,2,0,0,0,.38-1.59,2.12,2.12,0,0,0-.91-1.41L111.92,72ZM99.16,83.24a7.76,7.76,0,0,1,3.15.08,7.93,7.93,0,0,1,2.78,1.23,8,8,0,0,1,2.1,2.2,8,8,0,0,1-.17,8.86,8.17,8.17,0,0,1-2.2,2.1,8,8,0,0,1-6.08,1.06,7.8,7.8,0,0,1-4.88-3.43,7.93,7.93,0,0,1-1.14-2.93,7.76,7.76,0,0,1,.08-3.15A7.93,7.93,0,0,1,94,86.48a8,8,0,0,1,2.2-2.1,7.93,7.93,0,0,1,2.93-1.14Zm-58.9-40.7a16,16,0,0,1,6.26,1.24,16.45,16.45,0,0,1,5.11,3.43,16.14,16.14,0,0,1,3.42,5.11,16.28,16.28,0,0,1,0,12.51,15.82,15.82,0,0,1-8.53,8.53,16.28,16.28,0,0,1-12.51,0,16.14,16.14,0,0,1-5.11-3.42,16.45,16.45,0,0,1-3.43-5.11,16.28,16.28,0,0,1,0-12.51A15.94,15.94,0,0,1,34,43.78a15.92,15.92,0,0,1,6.25-1.24Z"/><path class="cls-1" d="M103.56,0c3.58,14.35,20.92,26.4,19,41.43-1.13,9-8.36,14-17.65,14.52-10.47.58-19.42-4.36-20.35-14.72-1.4-15.5,14.47-26.65,19-41.23ZM90.33,34.72a1.93,1.93,0,0,1,1.83-2,2,2,0,0,1,2.2,1.71,17.37,17.37,0,0,0,2,6.83,12.46,12.46,0,0,0,5,4.86c3.8,2.1-2.6,7.68-8.63-3.1a21.13,21.13,0,0,1-2.42-8.25Z"/></svg>