<?xml version="1.0" encoding="iso-8859-1"?>
<!-- Uploaded to: SVG Repo, www.svgrepo.com, Generator: SVG Repo Mixer Tools -->
<svg fill="#000000" height="800px" width="800px" version="1.1" id="Layer_1" xmlns="http://www.w3.org/2000/svg" xmlns:xlink="http://www.w3.org/1999/xlink" 
	 viewBox="0 0 512 512" xml:space="preserve">
<g>
	<g>
		<path d="M155.233,250.665c-2.947-7.027-11.036-10.334-18.06-7.39l-51.813,21.722c-7.027,2.946-10.336,11.032-7.39,18.06
			c2.947,7.028,11.032,10.336,18.06,7.39l51.813-21.722C154.87,265.778,158.18,257.693,155.233,250.665z"/>
	</g>
</g>
<g>
	<g>
		<path d="M142.508,322.13c-4.877,0-8.831,3.954-8.831,8.831v16.888c0,4.877,3.954,8.831,8.831,8.831s8.831-3.954,8.831-8.831
			v-16.888C151.339,326.084,147.385,322.13,142.508,322.13z"/>
	</g>
</g>
<g>
	<g>
		<path d="M142.508,155.321c-4.877,0-8.831,3.954-8.831,8.831v16.888c0,4.878,3.954,8.831,8.831,8.831s8.831-3.954,8.831-8.831
			v-16.888C151.339,159.275,147.385,155.321,142.508,155.321z"/>
	</g>
</g>
<g>
	<g>
		<path d="M213.699,314.702l-11.941-11.941c-3.45-3.448-9.039-3.448-12.489,0c-3.448,3.448-3.448,9.039,0,12.488l11.941,11.941
			c3.451,3.45,9.039,3.448,12.489,0C217.147,323.742,217.147,318.151,213.699,314.702z"/>
	</g>
</g>
<g>
	<g>
		<path d="M95.747,196.751L83.805,184.81c-3.45-3.448-9.039-3.448-12.489,0c-3.448,3.448-3.448,9.039,0,12.488l11.941,11.941
			c3.451,3.45,9.039,3.448,12.489,0C99.195,205.791,99.195,200.2,95.747,196.751z"/>
	</g>
</g>
<g>
	<g>
		<path d="M95.747,302.761c-3.45-3.448-9.039-3.448-12.489,0l-11.941,11.941c-3.448,3.448-3.448,9.039,0,12.488
			c3.451,3.45,9.039,3.448,12.489,0l11.941-11.941C99.195,311.8,99.195,306.209,95.747,302.761z"/>
	</g>
</g>
<g>
	<g>
		<path d="M213.699,184.81c-3.45-3.448-9.039-3.448-12.489,0l-11.941,11.941c-3.448,3.448-3.448,9.039,0,12.488
			c3.451,3.45,9.039,3.448,12.489,0l11.941-11.941C217.147,193.849,217.147,188.258,213.699,184.81z"/>
	</g>
</g>
<g>
	<g>
		<path d="M234.357,247.169h-16.889c-4.877,0-8.831,3.954-8.831,8.831s3.954,8.831,8.831,8.831h16.889
			c4.877,0,8.831-3.953,8.831-8.831C243.188,251.123,239.234,247.169,234.357,247.169z"/>
	</g>
</g>
<g>
	<g>
		<path d="M67.547,247.169H50.658c-4.877,0-8.831,3.954-8.831,8.831s3.954,8.831,8.831,8.831h16.889
			c4.877,0,8.831-3.953,8.831-8.831C76.378,251.123,72.424,247.169,67.547,247.169z"/>
	</g>
</g>
<g>
	<g>
		<path d="M406.682,309.691l-24.457-58.977c-2.921-7.039-10.994-10.382-18.031-7.46c-7.039,2.92-10.379,10.992-7.461,18.03
			l24.457,58.977c2.921,7.04,10.994,10.379,18.031,7.46C406.26,324.801,409.6,316.729,406.682,309.691z"/>
	</g>
</g>
<g>
	<g>
		<path d="M369.479,322.13c-4.877,0-8.831,3.954-8.831,8.831v16.888c0,4.877,3.954,8.831,8.831,8.831s8.831-3.954,8.831-8.831
			v-16.888C378.309,326.084,374.355,322.13,369.479,322.13z"/>
	</g>
</g>
<g>
	<g>
		<path d="M369.479,155.321c-4.877,0-8.831,3.954-8.831,8.831v16.888c0,4.878,3.954,8.831,8.831,8.831s8.831-3.954,8.831-8.831
			v-16.888C378.309,159.275,374.355,155.321,369.479,155.321z"/>
	</g>
</g>
<g>
	<g>
		<path d="M440.67,314.702l-11.941-11.941c-3.45-3.448-9.039-3.448-12.489,0c-3.448,3.448-3.448,9.039,0,12.488l11.941,11.941
			c3.451,3.45,9.039,3.448,12.489,0C444.119,323.742,444.119,318.151,440.67,314.702z"/>
	</g>
</g>
<g>
	<g>
		<path d="M322.717,196.75l-11.941-11.941c-3.45-3.448-9.039-3.448-12.489,0c-3.448,3.448-3.448,9.039,0,12.488l11.941,11.941
			c3.451,3.45,9.039,3.448,12.489,0C326.166,205.79,326.166,200.199,322.717,196.75z"/>
	</g>
</g>
<g>
	<g>
		<path d="M322.717,302.761c-3.45-3.448-9.039-3.448-12.489,0l-11.941,11.941c-3.448,3.448-3.448,9.039,0,12.488
			c3.451,3.45,9.039,3.448,12.489,0l11.941-11.941C326.166,311.8,326.166,306.209,322.717,302.761z"/>
	</g>
</g>
<g>
	<g>
		<path d="M440.67,184.81c-3.45-3.448-9.039-3.448-12.489,0l-11.941,11.941c-3.448,3.448-3.448,9.039,0,12.488
			c3.449,3.45,9.038,3.448,12.489,0l11.941-11.941C444.119,193.849,444.119,188.258,440.67,184.81z"/>
	</g>
</g>
<g>
	<g>
		<path d="M461.328,247.169h-16.889c-4.877,0-8.831,3.954-8.831,8.831s3.954,8.831,8.831,8.831h16.889
			c4.877,0,8.831-3.954,8.831-8.831S466.205,247.169,461.328,247.169z"/>
	</g>
</g>
<g>
	<g>
		<path d="M369.477,113.478c-45.397,0-86.947,21.469-113.5,56.413c-26.052-34.246-67.219-56.399-113.469-56.399
			C63.928,113.492,0,177.421,0,255.999c0,78.58,63.928,142.508,142.508,142.508c46.25,0,87.418-22.153,113.469-56.399
			c26.549,34.939,68.094,56.413,113.5,56.413c78.588,0,142.523-63.935,142.523-142.523C512,177.413,448.065,113.478,369.477,113.478
			z M142.508,365.392c-60.32,0-109.393-49.074-109.393-109.393s49.073-109.392,109.393-109.392
			c59.713,0,109.392,48.596,109.392,109.392C251.899,316.254,202.884,365.392,142.508,365.392z M369.477,365.408
			c-39.195,0-75.743-21.504-95.099-55.369c5.899-14.31,9.409-29.537,10.36-45.208h9.78c4.877,0,8.831-3.954,8.831-8.831
			s-3.954-8.831-8.831-8.831h-9.78c-0.952-15.691-4.467-30.911-10.36-45.208c19.356-33.864,55.904-55.368,95.099-55.368
			c60.327,0,109.407,49.079,109.407,109.407S429.804,365.408,369.477,365.408z"/>
	</g>
</g>
</svg>