<?xml version="1.0" encoding="iso-8859-1"?>
<!-- Uploaded to: SVG Repo, www.svgrepo.com, Generator: SVG Repo Mixer Tools -->
<svg fill="#000000" height="800px" width="800px" version="1.1" id="Layer_1" xmlns="http://www.w3.org/2000/svg" xmlns:xlink="http://www.w3.org/1999/xlink" 
	 viewBox="0 0 512 512" xml:space="preserve">
<g>
	<g>
		<path d="M500.153,24.212c-15.83-15.831-41.457-15.834-57.289,0l-40.885,40.885c-16.422-8.518-37.54-6.197-51.787,8.051
			L210.147,213.193c-8.988-8.864-20.87-13.746-33.507-13.746c-12.75,0-24.735,4.964-33.751,13.98l-21.488,21.488
			c-6.541,6.542-6.541,17.148,0,23.69l21.668,21.668l-22.027,22.027l-6.303-4.015c-7.803-4.971-18.158-2.675-23.128,5.13
			c-4.97,7.803-2.674,18.158,5.13,23.128l0.036,0.022L85.802,337.54l-6.303-4.015c-7.803-4.971-18.158-2.675-23.128,5.13
			c-4.97,7.803-2.674,18.158,5.13,23.128l0.036,0.022L14.783,408.56C5.25,418.09,0,430.763,0,444.242s5.25,26.152,14.781,35.683
			l14.83,14.83c6.541,6.542,17.148,6.543,23.69,0c6.542-6.542,6.542-17.148,0-23.69l-14.83-14.831
			c-3.203-3.203-4.967-7.462-4.967-11.992c0-4.53,1.765-8.789,4.967-11.993l29.119-29.12c0.18,0.302,0.375,0.594,0.563,0.891
			c-1.856,4.638-2.835,9.631-2.835,14.777c0,10.614,4.133,20.593,11.639,28.099c7.506,7.506,17.484,11.639,28.099,11.639
			c5.078,0,10.006-0.956,14.592-2.765c7.167,4.716,15.553,7.253,24.331,7.253c11.857,0,23.004-4.617,31.388-13.002l9.599-9.599
			l5.678,3.616c2.79,1.777,5.904,2.624,8.983,2.624c5.535,0,10.951-2.741,14.145-7.755c4.845-7.606,2.768-17.622-4.565-22.726l11-11
			l5.678,3.616c2.79,1.777,5.904,2.624,8.983,2.624c5.535,0,10.951-2.741,14.145-7.755c3.332-5.233,3.384-11.608,0.711-16.743
			l16.037,16.037c3.141,3.141,7.402,4.907,11.844,4.907c4.444,0,8.704-1.766,11.846-4.907l21.487-21.488
			c18.53-18.53,18.603-48.627,0.232-67.257l140.046-140.046c13.99-13.99,16.666-35.068,8.04-51.777L500.15,81.5
			C515.949,65.707,515.949,40.007,500.153,24.212z M151.678,426.334c-2.056,2.056-4.791,3.188-7.699,3.188
			c-2.906,0-5.637-1.13-7.692-3.183l-38.261-38.261c-1.352-1.355-2.295-3.006-2.787-4.805l60.784,38.715L151.678,426.334z
			 M180.29,397.722l-65.545-41.747L125.72,345l65.545,41.747L180.29,397.722z M215.53,362.481l-65.544-41.747l16.752-16.752
			l53.645,53.645L215.53,362.481z M287.249,357.786l-9.642,9.642l-120.67-120.67l9.642-9.643c2.687-2.687,6.26-4.167,10.061-4.167
			c3.8,0,7.374,1.48,10.061,4.167l11.601,11.602c0.001,0.001,0.003,0.003,0.004,0.006l77.337,77.337l11.606,11.606
			C292.797,343.212,292.797,352.239,287.249,357.786z M427.528,150.484l-140.04,140.039l-53.645-53.645L373.882,96.838
			c4.255-4.255,11.142-4.255,15.398,0c1.012,1.012,37.152,37.153,38.248,38.25C431.773,139.331,431.773,146.239,427.528,150.484z
			 M476.464,57.811l-39.415,39.414l-9.909-9.909l39.414-39.415c2.734-2.733,7.171-2.738,9.91,0
			C479.196,50.634,479.196,55.08,476.464,57.811z"/>
	</g>
</g>
</svg>