<?xml version="1.0" encoding="iso-8859-1"?>
<!-- Uploaded to: SVG Repo, www.svgrepo.com, Generator: SVG Repo Mixer Tools -->
<svg fill="#000000" version="1.1" id="Layer_1" xmlns="http://www.w3.org/2000/svg" xmlns:xlink="http://www.w3.org/1999/xlink" 
	 viewBox="0 0 295.24 295.24" xml:space="preserve">
<g>
	<g>
		<g>
			<rect x="42.857" y="109.525" width="9.524" height="9.524"/>
			<path d="M282.43,257.144c7.708-5.124,12.808-13.876,12.808-23.81V76.191c0-15.757-12.814-28.571-28.571-28.571h-23.81
				c-15.757,0-28.571,12.814-28.571,28.571v61.905h-42.857c0-7.876-6.41-14.286-14.286-14.286h-14.286
				c-7.876,0-14.286,6.41-14.286,14.286H80.952V76.191c0-15.757-12.814-28.571-28.571-28.571h-23.81C12.814,47.62,0,60.434,0,76.191
				v157.143c0,9.933,5.1,18.686,12.81,23.81H0v9.524h100v-9.524H68.143c7.714-5.124,12.81-13.876,12.81-23.81v-61.905h47.619
				c0,7.876,6.41,14.286,14.286,14.286h14.286c7.876,0,14.286-6.41,14.286-14.286h42.857v61.905c0,9.933,5.1,18.686,12.81,23.81
				h-79.476v9.524H295.24v-9.524H282.43z M9.524,76.191c0-10.504,8.543-19.047,19.047-19.047v26.6L9.524,102.791V76.191z
				 M9.524,116.258l19.047-19.047v38.914L9.524,155.172V116.258z M28.572,252.382c-10.505,0-19.048-8.543-19.048-19.048V221.02
				l19.048-19.048V252.382z M28.572,188.505L9.524,207.553v-38.914l19.048-19.048V188.505z M71.429,233.334
				c0,10.5-9.524,19.043-19.048,19.048v-50.405l19.048,19.043V233.334z M71.429,207.553l-19.048-19.042v-38.915l19.048,19.043
				V207.553z M71.429,155.172L52.381,136.13v-7.557h-9.524v123.81h-4.762V57.144h4.762v42.857h9.524v-2.786l19.048,19.043V155.172z
				 M71.429,102.791L52.381,83.749V57.144c9.524,0.005,19.048,8.547,19.048,19.047V102.791z M128.571,161.906H80.952V147.62h47.619
				V161.906z M161.905,171.43c0,2.624-2.133,4.762-4.762,4.762h-14.286c-2.629,0-4.762-2.138-4.762-4.762v-33.333
				c0-2.624,2.133-4.762,4.762-4.762h14.286c2.629,0,4.762,2.138,4.762,4.762V171.43z M214.286,161.906h-42.857V147.62h42.857
				V161.906z M285.715,207.553l-19.048-19.043v-38.914l19.048,19.043V207.553z M266.666,57.144
				c9.524,0.005,19.048,8.547,19.048,19.047v26.6l-19.048-19.043V57.144z M223.81,76.191c0-10.504,8.542-19.047,19.047-19.047v26.6
				l-19.047,19.047V76.191z M242.858,252.382c-10.505,0-19.048-8.543-19.048-19.048V221.02l19.048-19.048V252.382z M242.858,188.505
				l-19.048,19.048v-38.914l19.048-19.048V188.505z M242.858,136.124l-19.048,19.048v-38.914l19.048-19.048V136.124z
				 M257.143,252.382h-4.762V57.144h4.762v61.905h9.524V97.215l19.048,19.043v38.914l-19.048-19.043v-7.557h-9.524V252.382z
				 M266.667,252.382v-50.405l19.048,19.043v12.314C285.714,243.834,276.19,252.377,266.667,252.382z"/>
			<rect x="142.857" y="157.144" width="9.524" height="9.524"/>
			<rect x="47.619" y="285.715" width="247.619" height="9.524"/>
			<rect x="109.524" y="257.144" width="9.524" height="9.524"/>
			<rect x="128.571" y="257.144" width="9.524" height="9.524"/>
			<rect y="285.715" width="38.095" height="9.524"/>
			<rect x="4.762" y="23.811" width="119.048" height="9.524"/>
			<rect x="71.429" y="0.001" width="52.381" height="9.524"/>
			<rect x="228.571" y="23.811" width="61.905" height="9.524"/>
			<rect x="190.476" y="0.001" width="61.905" height="9.524"/>
			<rect x="209.524" y="23.811" width="9.524" height="9.524"/>
			<rect x="190.476" y="23.811" width="9.524" height="9.524"/>
		</g>
	</g>
</g>
</svg>