<?xml version="1.0" encoding="iso-8859-1"?>
<!-- Uploaded to: SVG Repo, www.svgrepo.com, Generator: SVG Repo Mixer Tools -->
<svg fill="#000000" height="800px" width="800px" version="1.1" id="Layer_1" xmlns="http://www.w3.org/2000/svg" xmlns:xlink="http://www.w3.org/1999/xlink" 
	 viewBox="0 0 511.998 511.998" xml:space="preserve">
<g>
	<g>
		<path d="M441.331,377.276l-68.687-103.518c5.365-2.763,9.881-7.115,12.846-12.639c5.295-9.869,4.737-21.795-1.454-31.127
			l-45.6-68.726c4.452-2.487,8.146-6.305,10.422-11.044c4.153-8.65,2.96-19.078-3.037-26.569l-30.269-37.79l67.017-56.261
			c7.091-5.953,8.013-16.526,2.061-23.617c-5.952-7.091-16.527-8.014-23.617-2.061L294.588,59.69l-15.515-19.37
			c-5.641-7.042-14.051-11.08-23.072-11.08c-9.022,0-17.433,4.039-23.073,11.082l-5.734,7.159l26.168,20.958l2.639-3.296
			l52.708,65.805c-5.938,0.216-11.339,3.564-14.162,8.826c-2.92,5.441-2.612,12.048,0.802,17.193l57.475,86.623h-9.191
			c-6.176,0-11.85,3.396-14.771,8.838c-2.92,5.441-2.612,12.048,0.802,17.195l83.407,125.703H297.039
			c-4.774,0-9.323,2.036-12.503,5.598c-3.18,3.562-4.69,8.31-4.153,13.055l2.434,21.46c0.961,8.473,8.129,14.875,16.656,14.875
			h12.545v28.161H199.98v-28.161h12.548c8.527,0,15.696-6.402,16.656-14.875l2.433-21.46c0.538-4.744-0.972-9.494-4.153-13.054
			c-3.18-3.562-7.729-5.598-12.503-5.598H98.926l83.406-125.703c3.414-5.146,3.723-11.753,0.802-17.195
			c-2.92-5.441-8.595-8.838-14.771-8.838h-9.191l57.477-86.622c3.414-5.146,3.723-11.753,0.802-17.195
			c-2.823-5.261-8.224-8.611-14.161-8.826l9.316-11.631l-26.167-20.96l-20.262,25.298c-5.998,7.491-7.189,17.92-3.034,26.57
			c2.275,4.736,5.969,8.555,10.42,11.04l-45.601,68.727c-6.191,9.333-6.748,21.259-1.453,31.127
			c2.964,5.523,7.48,9.876,12.845,12.638L70.667,377.277c-6.776,10.213-7.386,23.266-1.59,34.066
			c5.796,10.8,17.009,17.509,29.265,17.509h73.463c-3.368,4.709-5.351,10.471-5.351,16.689v37.702
			c0,15.856,12.9,28.756,28.756,28.756h121.578c15.856,0,28.756-12.9,28.756-28.756v-37.702c0-6.218-1.983-11.98-5.351-16.689
			h73.463c12.257,0,23.472-6.71,29.265-17.509C448.717,400.543,448.108,387.49,441.331,377.276z"/>
	</g>
</g>
<g>
	<g>
		<path d="M266.813,100.895L151.306,3.924c-7.09-5.952-17.664-5.029-23.617,2.061c-5.953,7.091-5.03,17.664,2.061,23.617
			l115.507,96.971c7.092,5.953,17.664,5.03,23.617-2.061C274.827,117.421,273.904,106.848,266.813,100.895z"/>
	</g>
</g>
</svg>