<?xml version="1.0" encoding="iso-8859-1"?>
<!-- Uploaded to: SVG Repo, www.svgrepo.com, Generator: SVG Repo Mixer Tools -->
<svg fill="#000000" height="800px" width="800px" version="1.1" id="Layer_1" xmlns="http://www.w3.org/2000/svg" xmlns:xlink="http://www.w3.org/1999/xlink" 
	 viewBox="0 0 512 512" xml:space="preserve">
<g transform="translate(1 1)">
	<g>
		<g>
			<path d="M255-1C114.2-1-1,114.2-1,255s115.2,256,256,256s256-115.2,256-256S395.8-1,255-1z M255,493.933
				c-131.413,0-238.933-107.52-238.933-238.933S123.587,16.067,255,16.067S493.933,123.587,493.933,255S386.413,493.933,255,493.933
				z"/>
			<path d="M255,127c-70.827,0-128,57.173-128,128s57.173,128,128,128s128-57.173,128-128S325.827,127,255,127z M255,365.933
				c-61.44,0-110.933-49.493-110.933-110.933S193.56,144.067,255,144.067S365.933,193.56,365.933,255S316.44,365.933,255,365.933z"
				/>
			<path d="M255,229.4c18.773,0,34.133-15.36,34.133-34.133c0-18.773-15.36-34.133-34.133-34.133
				c-18.773,0-34.133,15.36-34.133,34.133C220.867,214.04,236.227,229.4,255,229.4z M255,178.2c9.387,0,17.067,7.68,17.067,17.067
				s-7.68,17.067-17.067,17.067s-17.067-7.68-17.067-17.067S245.613,178.2,255,178.2z"/>
			<path d="M255,280.6c-18.773,0-34.133,15.36-34.133,34.133c0,18.773,15.36,34.133,34.133,34.133
				c18.773,0,34.133-15.36,34.133-34.133C289.133,295.96,273.773,280.6,255,280.6z M255,331.8c-9.387,0-17.067-7.68-17.067-17.067
				s7.68-17.067,17.067-17.067s17.067,7.68,17.067,17.067S264.387,331.8,255,331.8z"/>
			<path d="M195.267,220.867c-18.773,0-34.133,15.36-34.133,34.133c0,18.773,15.36,34.133,34.133,34.133
				c18.773,0,34.133-15.36,34.133-34.133C229.4,236.227,214.04,220.867,195.267,220.867z M195.267,272.067
				c-9.387,0-17.067-7.68-17.067-17.067s7.68-17.067,17.067-17.067s17.067,7.68,17.067,17.067S204.653,272.067,195.267,272.067z"/>
			<path d="M280.6,255c0,18.773,15.36,34.133,34.133,34.133c18.773,0,34.133-15.36,34.133-34.133
				c0-18.773-15.36-34.133-34.133-34.133C295.96,220.867,280.6,236.227,280.6,255z M331.8,255c0,9.387-7.68,17.067-17.067,17.067
				s-17.067-7.68-17.067-17.067s7.68-17.067,17.067-17.067S331.8,245.613,331.8,255z"/>
			<path d="M246.467,255c0,5.12,3.413,8.533,8.533,8.533s8.533-3.413,8.533-8.533s-3.413-8.533-8.533-8.533
				S246.467,249.88,246.467,255z"/>
			<path d="M68.973,168.813c-4.267-1.707-9.387,0.853-11.093,4.267c-2.56,4.267,0,9.387,4.267,11.093
				c4.267,2.56,9.387,0,11.093-4.267C75.8,175.64,73.24,170.52,68.973,168.813z"/>
			<path d="M101.4,200.387c4.267,2.56,9.387,0,11.093-4.267c2.56-4.267,0-9.387-4.267-11.093s-9.387,0.853-11.093,4.267
				C94.573,193.56,97.133,198.68,101.4,200.387z"/>
			<path d="M408.6,308.76c-5.12-1.707-9.387,0-11.093,4.267c-2.56,4.267,0,9.387,4.267,11.093c4.267,2.56,9.387,0,11.093-4.267
				C415.427,315.587,412.867,310.467,408.6,308.76z"/>
			<path d="M447.853,324.973c-4.267-1.707-9.387,0-11.093,4.267c-2.56,4.267,0,9.387,4.267,11.093c4.267,2.56,9.387,0,11.093-4.267
				C454.68,331.8,452.12,326.68,447.853,324.973z"/>
			<path d="M330.093,73.24c4.267,2.56,9.387,0,11.093-4.267c1.707-4.267-0.853-9.387-4.267-11.093c-4.267-2.56-9.387,0-11.093,4.267
				C323.267,66.413,325.827,71.533,330.093,73.24z"/>
			<path d="M313.88,112.493c4.267,2.56,9.387,0,11.093-4.267c1.707-4.267-0.853-9.387-4.267-11.093
				c-4.267-2.56-9.387,0-11.093,4.267C307.053,105.667,309.613,110.787,313.88,112.493z"/>
			<path d="M196.973,396.653c-4.267-2.56-9.387,0-11.093,4.267c-2.56,4.267,0,9.387,4.267,11.093c4.267,2.56,9.387,0,11.093-4.267
				S201.24,399.213,196.973,396.653z"/>
			<path d="M180.76,436.76c-4.267-2.56-9.387,0-11.093,4.267c-2.56,4.267,0,9.387,4.267,11.093c4.267,2.56,9.387,0,11.093-4.267
				S185.027,438.467,180.76,436.76z"/>
			<path d="M179.907,74.093c4.267-1.707,5.973-6.827,4.267-11.093s-6.827-6.827-11.093-4.267c-4.267,1.707-5.973,6.827-4.267,11.093
				S175.64,75.8,179.907,74.093z"/>
			<path d="M185.027,109.08c1.707,4.267,6.827,5.973,11.093,4.267s5.973-6.827,4.267-11.093c-1.707-4.267-6.827-6.827-11.093-4.267
				C185.027,99.693,183.32,104.813,185.027,109.08z"/>
			<path d="M313.88,397.507c-4.267,1.707-5.973,6.827-4.267,11.093s6.827,5.973,11.093,4.267s5.973-6.827,4.267-11.093
				C323.267,396.653,318.147,394.947,313.88,397.507z"/>
			<path d="M330.947,436.76c-4.267,1.707-5.973,6.827-4.267,11.093c1.707,4.267,6.827,5.973,11.093,4.267s5.973-6.827,4.267-11.093
				C339.48,436.76,335.213,434.2,330.947,436.76z"/>
			<path d="M447,184.173c4.267-1.707,6.827-6.827,4.267-11.093c-1.707-4.267-6.827-5.973-11.093-4.267s-5.973,6.827-4.267,11.093
				S442.733,185.88,447,184.173z"/>
			<path d="M407.747,200.387c4.267-1.707,6.827-6.827,4.267-11.093c-1.707-4.267-6.827-5.973-11.093-4.267
				s-5.973,6.827-4.267,11.093S403.48,202.093,407.747,200.387z"/>
			<path d="M101.4,309.613c-4.267,1.707-5.973,6.827-4.267,11.093s6.827,5.973,11.093,4.267c5.12-1.707,6.827-6.827,4.267-11.093
				C110.787,309.613,105.667,307.907,101.4,309.613z"/>
			<path d="M62.147,326.68c-4.267,1.707-5.973,6.827-4.267,11.093s6.827,5.973,11.093,4.267c4.267-2.56,6.827-6.827,4.267-11.093
				C71.533,326.68,66.413,324.973,62.147,326.68z"/>
		</g>
	</g>
</g>
</svg>