<?xml version="1.0" encoding="iso-8859-1"?>
<!-- Uploaded to: SVG Repo, www.svgrepo.com, Generator: SVG Repo Mixer Tools -->
<svg fill="#000000" height="800px" width="800px" version="1.1" id="Layer_1" xmlns="http://www.w3.org/2000/svg" xmlns:xlink="http://www.w3.org/1999/xlink" 
	 viewBox="0 0 512 512" xml:space="preserve">
<g>
	<g>
		<path d="M384,140.804c-63.522,0-115.2,51.678-115.2,115.2s51.678,115.2,115.2,115.2c14.14,0,25.6-11.46,25.6-25.6v-179.2
			C409.6,152.265,398.14,140.804,384,140.804z M384,345.604c-49.485,0-89.6-40.115-89.6-89.6s40.115-89.6,89.6-89.6V345.604z"/>
	</g>
</g>
<g>
	<g>
		<path d="M128,140.804c-14.14,0-25.6,11.46-25.6,25.6v179.2c0,14.14,11.46,25.6,25.6,25.6c63.522,0,115.2-51.678,115.2-115.2
			S191.522,140.804,128,140.804z M128,345.604v-179.2c49.485,0,89.6,40.115,89.6,89.6S177.485,345.604,128,345.604z"/>
	</g>
</g>
<g>
	<g>
		<path d="M499.2,243.204H448c-7.074,0-12.8,5.726-12.8,12.8c0,7.074,5.726,12.8,12.8,12.8h51.2c7.074,0,12.8-5.726,12.8-12.8
			C512,248.93,506.274,243.204,499.2,243.204z"/>
	</g>
</g>
<g>
	<g>
		<path d="M495.454,93.359c-5.001-5.001-13.099-5.001-18.099,0l-38.4,38.4c-5.001,5-5.001,13.099,0,18.099
			c2.492,2.5,5.768,3.746,9.045,3.746s6.554-1.246,9.054-3.746l38.4-38.4C500.454,106.458,500.454,98.359,495.454,93.359z"/>
	</g>
</g>
<g>
	<g>
		<path d="M495.445,400.55l-38.391-38.4c-2.5-2.5-5.777-3.746-9.054-3.746s-6.554,1.246-9.054,3.746
			c-5.001,5.001-5.001,13.099,0,18.099l38.4,38.4c5.001,5.001,13.099,5.001,18.099,0
			C500.446,413.649,500.446,405.551,495.445,400.55z"/>
	</g>
</g>
<g>
	<g>
		<path d="M64,243.204H12.8c-7.074,0-12.8,5.726-12.8,12.8c0,7.074,5.726,12.8,12.8,12.8H64c7.074,0,12.8-5.726,12.8-12.8
			C76.8,248.93,71.074,243.204,64,243.204z"/>
	</g>
</g>
<g>
	<g>
		<path d="M73.054,131.759l-38.4-38.409c-5.001-5.001-13.099-5.001-18.099,0c-5.001,5.001-5.001,13.099,0,18.099l38.4,38.4
			c2.492,2.509,5.769,3.755,9.045,3.755s6.554-1.246,9.054-3.746C78.054,144.858,78.054,136.759,73.054,131.759z"/>
	</g>
</g>
<g>
	<g>
		<path d="M73.045,362.15c-2.492-2.5-5.769-3.746-9.045-3.746s-6.554,1.246-9.054,3.746l-38.4,38.4
			c-5.001,5.001-5.001,13.099,0,18.099c5.001,5.001,13.099,5.001,18.099,0l38.4-38.4C78.046,375.249,78.046,367.151,73.045,362.15z"
			/>
	</g>
</g>
</svg>