<?xml version="1.0" encoding="iso-8859-1"?>
<!-- Uploaded to: SVG Repo, www.svgrepo.com, Generator: SVG Repo Mixer Tools -->
<svg fill="#000000" version="1.1" id="Layer_1" xmlns="http://www.w3.org/2000/svg" xmlns:xlink="http://www.w3.org/1999/xlink" 
	 viewBox="0 0 295.238 295.238" xml:space="preserve">
<g>
	<g>
		<g>
			<path d="M242.857,28.571h-52.381c-12.462,0-22.695,6.167-28.257,17.338l-26.295,68.376h106.933V28.571z M149.785,104.762
				l21.138-55.014c3.762-7.514,10.705-11.652,19.552-11.652h42.857v66.666H149.785z"/>
			<rect x="214.286" y="123.81" width="28.571" height="9.524"/>
			<rect x="257.143" y="123.81" width="9.524" height="9.524"/>
			<rect x="214.286" y="47.619" width="9.524" height="9.524"/>
			<rect x="195.238" y="47.619" width="9.524" height="9.524"/>
			<path d="M190.476,0c-25.043,0-44.124,13.743-56.852,41.229L114.705,93.29c-1.352,3.019-3.895,5.667-7.01,7.671L36.7,29.967
				c-0.448-0.448-11.157-10.919-31.938-10.919v9.524c13.033,0,20.857,4.767,23.81,6.99v77.857C11.652,124.31,0,144.305,0,166.667
				v42.857c0,16.162,11.681,33.333,33.333,33.333h14.529c1.486,17.881,11.205,33.443,25.381,42.857H4.762v9.524h204.762v-9.524
				h-73.243c14.176-9.414,23.895-24.976,25.381-42.857h133.576v-9.524H161.662c-2.433-29.281-26.995-52.381-56.9-52.381
				c-29.905,0-54.467,23.1-56.9,52.381H33.333c-15.467,0-23.81-12.267-23.81-23.81v-19.048h23.81c8.676,0,14.286-5.61,14.286-14.286
				v-9.524c0-8.676-5.61-14.286-14.286-14.286h-21.89c5.819-21.705,24.371-38.095,45.7-38.095h38.095
				c11.871,0,23.71-7.19,28.281-17.419l18.895-52.005c11.038-23.781,26.752-35.338,48.062-35.338h104.762V0H190.476z
				 M104.762,190.476c26.257,0,47.619,21.362,47.619,47.619c0,26.257-21.362,47.619-47.619,47.619
				c-26.257,0-47.619-21.362-47.619-47.619S78.505,190.476,104.762,190.476z M33.333,161.905c3.429,0,4.762,1.333,4.762,4.762v9.524
				c0,3.429-1.333,4.762-4.762,4.762H9.524v-14.286c0-1.605,0.09-3.19,0.229-4.762H33.333z M95.238,104.762H57.143
				c-6.652,0-13.052,1.376-19.048,3.757v-63.69l59.743,59.743C96.971,104.677,96.105,104.762,95.238,104.762z"/>
			<path d="M104.762,266.667c15.757,0,28.571-12.814,28.571-28.571c0-15.757-12.814-28.571-28.571-28.571
				c-15.757,0-28.572,12.813-28.572,28.57C76.19,253.852,89.005,266.667,104.762,266.667z M104.762,219.048
				c10.505,0,19.048,8.543,19.048,19.048s-8.543,19.048-19.048,19.048s-19.048-8.543-19.048-19.048
				C85.714,227.59,94.257,219.048,104.762,219.048z"/>
			<polygon points="257.143,114.286 295.238,114.286 295.238,104.762 266.667,104.762 266.667,38.095 295.238,38.095 
				295.238,28.571 257.143,28.571 			"/>
			<rect x="219.048" y="285.714" width="9.524" height="9.524"/>
			<rect x="180.952" y="261.905" width="114.286" height="9.524"/>
		</g>
	</g>
</g>
</svg>