<?xml version="1.0" encoding="iso-8859-1"?>
<!-- Uploaded to: SVG Repo, www.svgrepo.com, Generator: SVG Repo Mixer Tools -->
<svg fill="#000000" height="800px" width="800px" version="1.1" id="Layer_1" xmlns="http://www.w3.org/2000/svg" xmlns:xlink="http://www.w3.org/1999/xlink" 
	 viewBox="0 0 512 512" xml:space="preserve">
<g>
	<g>
		<path d="M503.467,284.914h-59.733v-42.667c0-5.12-3.413-8.533-8.533-8.533H76.8c-5.12,0-8.533,3.413-8.533,8.533v42.667H8.533
			c-5.12,0-8.533,3.413-8.533,8.533v68.267c0,5.12,3.413,8.533,8.533,8.533h59.733v42.667c0,5.12,3.413,8.533,8.533,8.533h358.4
			c5.12,0,8.533-3.413,8.533-8.533v-42.667h59.733c5.12,0,8.533-3.413,8.533-8.533v-68.267
			C512,288.327,508.587,284.914,503.467,284.914z M494.933,353.18H435.2c-5.12,0-8.533,3.413-8.533,8.533v42.667H85.333v-42.667
			c0-5.12-3.413-8.533-8.533-8.533H17.067v-51.2H76.8c5.12,0,8.533-3.413,8.533-8.533V250.78h341.333v42.667
			c0,5.12,3.413,8.533,8.533,8.533h59.733V353.18z"/>
	</g>
</g>
<g>
	<g>
		<path d="M367.787,150.94c0-0.853-0.853-2.56-0.853-3.413v-0.853c-0.853-1.707-1.707-3.413-2.56-5.12
			c-3.413-5.12-5.973-11.093-5.973-17.067c0-5.973,2.56-11.947,5.12-17.067c0.853-1.707,1.707-3.413,2.56-5.12
			c1.707-4.267,0-9.387-4.267-11.093s-9.387,0-11.093,4.267c-0.853,1.707-1.707,2.56-1.707,4.267
			c-3.413,5.973-7.68,14.507-7.68,24.747s4.267,18.773,6.827,24.747c0.853,1.707,0.853,2.56,1.707,3.413v0.853
			c0.853,1.707,1.707,3.413,2.56,5.12c3.413,5.12,5.973,11.093,5.973,17.067c0,11.947-11.093,24.747-14.507,28.16
			c-3.413,3.413-3.413,8.533,0,11.947c1.707,1.707,3.413,2.56,5.973,2.56c1.707,0,4.267-0.853,5.973-2.56
			c0.853-0.853,19.627-18.773,19.627-40.107C375.467,165.447,371.2,156.914,367.787,150.94z"/>
	</g>
</g>
<g>
	<g>
		<path d="M273.92,150.94c0-0.853-0.853-2.56-0.853-3.413v-0.853c-0.853-1.707-1.707-3.413-2.56-5.12
			c-3.413-5.12-5.973-11.093-5.973-17.067c0-5.973,2.56-11.947,5.12-17.067c0.853-1.707,1.707-3.413,2.56-5.12
			c1.707-4.267,0-9.387-4.267-11.093s-9.387,0-11.093,4.267c-0.853,1.707-1.707,2.56-1.707,4.267
			c-3.413,5.973-7.68,14.507-7.68,24.747s4.267,18.773,6.827,24.747c0.853,1.707,0.853,2.56,1.707,3.413v0.853
			c0.853,1.707,1.707,3.413,2.56,5.12c3.413,5.12,5.973,11.093,5.973,17.067c0,11.947-11.093,24.747-14.507,28.16
			s-3.413,8.533,0,11.947c1.707,1.707,3.413,2.56,5.973,2.56c1.707,0,4.267-0.853,5.973-2.56
			c0.853-0.853,19.627-18.773,19.627-40.107C281.6,165.447,277.333,156.914,273.92,150.94z"/>
	</g>
</g>
<g>
	<g>
		<path d="M180.053,150.94c0-0.853-0.853-2.56-1.707-3.413v-0.853c-0.853-1.707-1.707-3.413-2.56-5.12
			c-2.56-5.12-5.12-11.093-5.12-17.067c0-5.973,2.56-11.947,5.12-17.067c0.853-1.707,1.707-3.413,2.56-5.12
			c1.707-4.267,0-9.387-4.267-11.093s-9.387,0-11.093,4.267c-0.853,1.707-1.707,2.56-1.707,4.267
			c-3.413,5.973-7.68,14.507-7.68,24.747s4.267,18.773,6.827,24.747c0.853,1.707,0.853,2.56,1.707,3.413v0.853
			c0.853,1.707,1.707,3.413,2.56,5.12c3.413,5.12,5.973,11.093,5.973,17.067c0,11.947-11.093,24.747-14.507,28.16
			s-3.413,8.533,0,11.947c1.707,1.707,3.413,2.56,5.973,2.56c1.707,0,4.267-0.853,5.973-2.56
			c0.853-0.853,19.627-18.773,19.627-40.107C187.733,165.447,183.467,156.914,180.053,150.94z"/>
	</g>
</g>
</svg>