<?xml version="1.0" encoding="iso-8859-1"?>
<!-- Uploaded to: SVG Repo, www.svgrepo.com, Generator: SVG Repo Mixer Tools -->
<svg fill="#000000" height="800px" width="800px" version="1.1" id="Layer_1" xmlns="http://www.w3.org/2000/svg" xmlns:xlink="http://www.w3.org/1999/xlink" 
	 viewBox="0 0 512 512" xml:space="preserve">
<g>
	<g>
		<path d="M501.637,233.85h-26.371c-7.172-24.956-23.903-48.923-50.277-48.923H176.578c-0.456,0-0.907,0.019-1.354,0.055
			c-21.617,0.743-39.369,19.285-47.875,47.144H99.108c-3.601,0-6.529-2.929-6.529-6.529v-29.763
			c0-22.029-17.922-39.951-39.951-39.951H16.711C7.482,155.882,0,163.364,0,172.593c0,9.229,7.482,16.711,16.711,16.711h35.917
			c3.601,0,6.529,2.929,6.529,6.529v29.763c0,22.029,17.922,39.951,39.951,39.951h22.896c-0.055,1.65-0.089,3.311-0.089,4.991
			c0,48.789,23.5,85.58,54.663,85.58c0.367,0,0.731-0.011,1.112-0.03c2.47,0,246.274,0.006,247.529-0.011
			c0.1,0.001,0.199,0.011,0.3,0.011c28.683,0,50.859-31.18,54.208-74.186h21.91c5.723,0,10.363-10.757,10.363-24.026
			C512,244.608,507.36,233.85,501.637,233.85z M381.575,322.664H177.252v0.001c-0.162,0-0.323,0.002-0.485,0.007
			c-0.141,0.003-0.283,0.01-0.429,0.017c-7.539-0.411-21.004-20.135-21.004-52.152c0-32.356,13.753-52.159,21.242-52.159
			c0.344,0,0.686-0.01,1.025-0.031h203.974c-7.581,15.923-10.723,34.662-10.723,52.159
			C370.852,287.974,373.984,306.722,381.575,322.664z M425.583,322.66c-0.06-0.002-0.118-0.012-0.178-0.013
			c-7.45-0.186-21.129-20.122-21.129-52.14s13.679-51.955,21.129-52.14c0.062-0.001,0.123-0.011,0.185-0.013
			c3.952,0.065,9.609,5.579,14.083,15.496h-10.782c-5.723,0-10.363,10.757-10.363,24.026c0,13.268,4.639,24.026,10.363,24.026
			h17.276C443.467,307.366,432.157,322.562,425.583,322.66z"/>
	</g>
</g>
</svg>