<?xml version="1.0" encoding="iso-8859-1"?>
<!-- Uploaded to: SVG Repo, www.svgrepo.com, Generator: SVG Repo Mixer Tools -->
<svg fill="#000000" height="800px" width="800px" version="1.1" id="Layer_1" xmlns="http://www.w3.org/2000/svg" xmlns:xlink="http://www.w3.org/1999/xlink" 
	 viewBox="0 0 512.001 512.001" xml:space="preserve">
<g>
	<g>
		<circle cx="73.937" cy="376.696" r="18.559"/>
	</g>
</g>
<g>
	<g>
		<path d="M438.058,302.754c-2.136,0-4.246,0.111-6.337,0.29l17.588-51.667c1.927-5.562,1.574-11.542-0.995-16.837
			c-2.569-5.296-7.048-9.274-12.61-11.201l-9.268-3.211l47.348-136.643c3.014-8.696-1.593-18.187-10.289-21.199
			c-8.689-3.011-18.187,1.593-21.199,10.289l-47.348,136.643l-9.269-3.211c-2.328-0.806-4.755-1.215-7.214-1.215
			c-9.383,0-17.75,5.959-20.82,14.823l-12.996,37.503l-16.232-12.329c-4.499-3.416-10.422-4.32-15.729-2.407l-41.461,14.946
			l-107.097-21.229v-28.482h16.012c12.15,0,22.036-9.885,22.036-22.036v-58.609c0-12.15-9.884-22.036-22.036-22.036h-14.355
			c-11.487,0-20.948,8.834-21.948,20.065H96.13c-0.999-11.232-10.461-20.065-21.948-20.065H59.826
			c-12.15,0-22.036,9.885-22.036,22.036v58.609c0,12.15,9.884,22.036,22.036,22.036h16.012v70.791
			c0,7.954,5.622,14.797,13.422,16.345l50.42,9.995l-26.27,9.47c-11.431-7.246-24.963-11.463-39.469-11.463
			C33.17,302.754,0,335.924,0,376.696s33.17,73.942,73.941,73.942c39.384,0,71.667-30.951,73.821-69.806H203.4
			c-1.121,2.241-1.766,4.759-1.766,7.434c0,9.202,7.46,16.663,16.663,16.663h84.21c9.202,0,16.663-7.46,16.663-16.663
			c0-2.675-0.647-5.194-1.766-7.434h46.837c2.154,38.855,34.436,69.806,73.82,69.806c40.772,0,73.942-33.17,73.942-73.942
			S478.83,302.754,438.058,302.754z M73.941,417.313c-22.396,0-40.616-18.22-40.616-40.617c0-22.397,18.22-40.617,40.616-40.617
			c22.436,0,40.617,18.259,40.617,40.617C114.558,399.093,96.338,417.313,73.941,417.313z M71.117,174.29v-18.258
			c2.476,1.456,5.359,2.292,8.439,2.292h80.859c3.079,0,5.963-0.835,8.439-2.292v18.258H71.117z M109.163,264.723v-56.771h21.641
			v41.828c0,7.954,5.622,14.797,13.422,16.345l66.193,13.121l-9.932,3.58L109.163,264.723z M370.131,347.506H141.866
			c-1.005-2.329-2.131-4.592-3.36-6.792c-0.019-0.033-0.034-0.069-0.053-0.102c4.549-1.64,175.184-63.15,177.018-63.812
			l67.149,51.005C377.388,333.739,373.11,340.592,370.131,347.506z M372.571,278.322l12.866-37.132l28.747,9.961l-15.899,46.703
			L372.571,278.322z M438.058,417.313c-22.396,0-40.615-18.22-40.615-40.617c0-22.075,17.937-40.617,40.615-40.617
			c22.397,0,40.617,18.221,40.617,40.617C478.675,399.091,460.455,417.313,438.058,417.313z"/>
	</g>
</g>
<g>
	<g>
		<circle cx="438.058" cy="376.696" r="18.559"/>
	</g>
</g>
</svg>