<?xml version="1.0" encoding="iso-8859-1"?>
<!-- Uploaded to: SVG Repo, www.svgrepo.com, Generator: SVG Repo Mixer Tools -->
<svg fill="#000000" height="800px" width="800px" version="1.1" id="Layer_1" xmlns="http://www.w3.org/2000/svg" xmlns:xlink="http://www.w3.org/1999/xlink" 
	 viewBox="0 0 512 512" xml:space="preserve">
<g>
	<g>
		<path d="M397.331,162.017l-47.36-47.361c-6.546-6.547-17.172-6.549-23.721,0l-49.827,49.827c-6.55,6.55-6.55,17.17,0,23.721
			l47.361,47.36c6.546,6.547,17.172,6.549,23.721,0l49.827-49.827C403.882,179.187,403.882,168.567,397.331,162.017z
			 M335.643,199.983l-23.64-23.639l26.107-26.107l23.64,23.639L335.643,199.983z"/>
	</g>
</g>
<g>
	<g>
		<path d="M511.989,92.443c0-8.78-3.419-17.034-9.627-23.241L442.785,9.626C436.577,3.418,428.323,0,419.545,0
			c-8.78,0-17.032,3.418-23.241,9.627l-47.601,47.601c-13.792-4.207-29.626-1.014-40.821,10.181l-92.025,92.025
			c-15.948,15.947-15.955,41.768,0,57.721l78.976,78.976c15.949,15.95,41.769,15.953,57.72,0l92.026-92.025
			c11.098-11.097,14.428-26.894,10.181-40.821l47.601-47.601C508.569,109.477,511.989,101.222,511.989,92.443z M420.858,180.385
			l-92.027,92.026c-2.833,2.835-7.436,2.839-10.277,0l-78.976-78.977c-2.835-2.835-2.84-7.438,0-10.279l92.025-92.025
			c2.835-2.835,7.438-2.841,10.279,0c9.649,9.649,69.774,69.774,78.979,78.979C423.686,172.937,423.705,177.538,420.858,180.385z
			 M434.399,136.204l-58.615-58.615l43.762-43.761l58.615,58.615L434.399,136.204z"/>
	</g>
</g>
<g>
	<g>
		<path d="M267.911,294.239l-50.162-50.164c-11.263-11.265-29.499-11.267-40.764,0l-27.984,27.984
			c-6.422-6.422-13.765-9.97-22.884-9.97c-8.328,0-16.158,3.243-22.048,9.132l-43.478,43.477c-9.811,9.811-11.7,24.586-5.674,36.314
			L9.621,396.309c-12.812,12.814-12.812,33.665,0.001,46.48l59.576,59.576c12.845,12.845,33.636,12.848,46.48,0l45.287-45.287
			c11.482,5.928,26.296,4.344,36.32-5.682l43.479-43.478c12.155-12.157,12.155-31.937-0.001-44.093l-0.838-0.838l27.984-27.984
			C279.177,323.739,279.178,305.505,267.911,294.239z M92.438,478.164l-58.615-58.615l43.761-43.761l58.616,58.616L92.438,478.164z
			 M204.345,351.127c-6.546,6.546-6.55,17.172,0,23.722l11.024,11.023l-40.13,40.13c-9.916-9.916-79.487-79.487-89.255-89.255
			l40.13-40.13l11.024,11.024c6.546,6.547,17.172,6.549,23.721,0l36.506-36.506l43.486,43.486L204.345,351.127z"/>
	</g>
</g>
<g>
	<g>
		<path d="M184.673,371.643l-43.394-43.394c-6.549-6.55-17.17-6.55-23.72,0c-6.55,6.55-6.55,17.17,0,23.721l43.394,43.394
			c6.549,6.55,17.17,6.552,23.721,0C191.223,388.813,191.223,378.193,184.673,371.643z"/>
	</g>
</g>
</svg>