<?xml version="1.0" encoding="iso-8859-1"?>
<!-- Uploaded to: SVG Repo, www.svgrepo.com, Generator: SVG Repo Mixer Tools -->
<svg fill="#000000" height="800px" width="800px" version="1.1" id="Layer_1" xmlns="http://www.w3.org/2000/svg" xmlns:xlink="http://www.w3.org/1999/xlink" 
	 viewBox="0 0 512 512" xml:space="preserve">
<g>
	<g>
		<path d="M501.668,261.598c-68.42-50.85-148.676-78.754-232.866-81.792V102.4c0-42.351,34.449-76.8,76.8-76.8
			c42.351,0,76.8,34.449,76.8,76.8c0,7.074,5.726,12.8,12.8,12.8c7.074,0,12.8-5.726,12.8-12.8c0-56.465-45.935-102.4-102.4-102.4
			c-38.81,0-72.235,21.956-89.6,53.862C238.636,21.956,205.211,0,166.402,0c-56.465,0-102.4,45.935-102.4,102.4
			c0,7.074,5.726,12.8,12.8,12.8c7.074,0,12.8-5.726,12.8-12.8c0-42.351,34.449-76.8,76.8-76.8c42.351,0,76.8,34.449,76.8,76.8
			v77.21c-83.755,2.082-163.977,28.843-232.559,78.225c-11.469,8.26-14.071,24.243-5.828,35.712L141.638,483.9
			c3.968,5.521,9.958,9.233,16.666,10.325c1.374,0.222,2.748,0.333,4.122,0.333c5.333,0,10.573-1.673,14.959-4.83
			c15.087-10.863,32.043-17.963,49.826-21.649l17.212,36.565c2.176,4.642,6.784,7.356,11.588,7.356c1.826,0,3.678-0.384,5.436-1.212
			c6.4-3.012,9.139-10.641,6.135-17.041l-13.491-28.672c27.964,0.102,54.716,9.003,77.372,25.847
			c4.437,3.302,9.805,5.052,15.266,5.052c1.246,0,2.492-0.094,3.746-0.273c6.724-0.99,12.774-4.617,16.819-10.069L506.95,297.395
			C515.381,286.046,513.008,270.029,501.668,261.598z M346.745,470.374c-26.035-19.345-58.18-30.933-93.107-30.933
			c-3.806,0-7.441,0.631-11.179,0.896l-77.261-164.19c-3.012-6.409-10.667-9.173-17.041-6.135c-6.4,3.012-9.139,10.641-6.135,17.041
			l74.104,157.466c-19.541,4.881-37.811,13.013-53.692,24.448L25.601,278.605c61.585-44.348,136.448-71.219,217.6-73.387V358.4
			c0,7.074,5.726,12.8,12.8,12.8c7.074,0,12.8-5.726,12.8-12.8V205.423c81.417,3.157,156.322,31.172,217.6,76.715L346.745,470.374z"
			/>
	</g>
</g>
</svg>