<?xml version="1.0" encoding="iso-8859-1"?>
<!-- Uploaded to: SVG Repo, www.svgrepo.com, Generator: SVG Repo Mixer Tools -->
<svg fill="#000000" height="800px" width="800px" version="1.1" id="Layer_1" xmlns="http://www.w3.org/2000/svg" xmlns:xlink="http://www.w3.org/1999/xlink" 
	 viewBox="0 0 512 512" xml:space="preserve">
<g>
	<g>
		<path d="M279.433,302.515L243.2,281.6l36.224-20.915c6.127-3.541,8.226-11.366,4.685-17.485
			c-3.55-6.127-11.409-8.226-17.485-4.685L230.4,259.43V217.6c0-7.074-5.726-12.8-12.8-12.8c-7.074,0-12.8,5.726-12.8,12.8v41.83
			l-36.224-20.915c-6.135-3.541-13.952-1.434-17.485,4.685c-3.533,6.118-1.434,13.952,4.685,17.485L192,281.6l-36.224,20.915
			c-6.127,3.541-8.226,11.366-4.685,17.485c2.372,4.113,6.673,6.4,11.102,6.4c2.176,0,4.378-0.546,6.391-1.715L204.8,303.77v41.83
			c0,7.074,5.726,12.8,12.8,12.8c7.074,0,12.8-5.726,12.8-12.8v-41.83l36.224,20.915c2.014,1.161,4.215,1.715,6.391,1.715
			c4.429,0,8.721-2.287,11.102-6.4C287.659,313.873,285.551,306.048,279.433,302.515z"/>
	</g>
</g>
<g>
	<g>
		<path d="M499.2,25.6c-7.074,0-12.8,5.726-12.8,12.8v12.8H217.6c-46.293,0-89.173,14.643-124.484,39.39
			C86.093,82.244,75.742,76.8,64,76.8c-21.171,0-38.4,17.229-38.4,38.4c0,11.742,5.444,22.093,13.79,29.116
			C14.643,179.627,0,222.507,0,268.8c0,46.293,14.643,89.173,39.39,124.484c-8.346,7.023-13.79,17.374-13.79,29.116
			c0,21.171,17.229,38.4,38.4,38.4c11.742,0,22.093-5.444,29.116-13.79c35.311,24.747,78.191,39.39,124.484,39.39
			c46.293,0,89.173-14.643,124.484-39.39c7.023,8.346,17.374,13.79,29.116,13.79c21.171,0,38.4-17.229,38.4-38.4
			c0-11.742-5.444-22.093-13.79-29.116c24.747-35.311,39.39-78.191,39.39-124.484c0-22.298-3.516-43.75-9.805-64H486.4v12.8
			c0,7.074,5.726,12.8,12.8,12.8c7.074,0,12.8-5.726,12.8-12.8v-12.8V51.2V38.4C512,31.326,506.274,25.6,499.2,25.6z M64,102.4
			c3.652,0,6.912,1.57,9.242,4.028c-6.349,5.649-12.356,11.657-18.014,18.014c-2.458-2.338-4.028-5.589-4.028-9.242
			C51.2,108.126,56.934,102.4,64,102.4z M64,435.2c-7.066,0-12.8-5.734-12.8-12.8c0-3.652,1.57-6.912,4.028-9.242
			c5.658,6.357,11.657,12.356,18.014,18.014C70.912,433.63,67.652,435.2,64,435.2z M371.2,435.2c-3.652,0-6.903-1.57-9.242-4.028
			c6.349-5.658,12.356-11.657,18.014-18.014c2.458,2.33,4.028,5.589,4.028,9.242C384,429.466,378.266,435.2,371.2,435.2z
			 M486.4,179.2H293.615c-21.316-15.872-47.454-25.6-76.015-25.6c-70.579,0-128,57.421-128,128s57.421,128,128,128
			s128-57.421,128-128c0-28.928-10.01-55.339-26.249-76.8h79.044c7.151,20.028,11.204,41.515,11.204,64
			c0,106.035-85.965,192-192,192s-192-85.965-192-192s85.965-192,192-192h268.8V179.2z M320,281.6c0,56.55-45.841,102.4-102.4,102.4
			c-56.55,0-102.4-45.85-102.4-102.4c0-56.559,45.85-102.4,102.4-102.4C274.159,179.2,320,225.041,320,281.6z"/>
	</g>
</g>
</svg>