<?xml version="1.0" encoding="iso-8859-1"?>
<!-- Uploaded to: SVG Repo, www.svgrepo.com, Generator: SVG Repo Mixer Tools -->
<svg fill="#000000" height="800px" width="800px" version="1.1" id="Layer_1" xmlns="http://www.w3.org/2000/svg" xmlns:xlink="http://www.w3.org/1999/xlink" 
	 viewBox="0 0 511.998 511.998" xml:space="preserve">
<g>
	<g>
		<circle cx="500.186" cy="242.573" r="11.812"/>
	</g>
</g>
<g>
	<g>
		<path d="M509.18,133.643c0-13.759-11.154-24.912-24.912-24.912s-24.913,11.153-24.913,24.912c0,4.885,1.412,9.437,3.841,13.282
			c-8.796,2.072-15.35,9.951-15.35,19.38c0,11.007,8.923,19.93,19.93,19.93c11.007,0,19.93-8.923,19.93-19.93
			c0-2.778-0.571-5.422-1.599-7.825C499.005,157.539,509.18,146.784,509.18,133.643z"/>
	</g>
</g>
<g>
	<g>
		<circle cx="438.659" cy="128.664" r="11.299"/>
	</g>
</g>
<g>
	<g>
		<circle cx="463.35" cy="62.233" r="15.501"/>
	</g>
</g>
<g>
	<g>
		<path d="M493.24,326.3h-8.18v-22.785c0-26.815-21.816-48.631-48.632-48.631h-27.12l32.346-54.653
			c4.671-7.893,2.058-18.079-5.835-22.752c-7.895-4.669-18.079-2.058-22.752,5.835l-31.462,53.161
			c-24.895-41.102-69.716-66.847-118.615-66.847H131.466c-27.795,0-51.956,17.851-60.12,44.42l-13.783,44.855
			c-9.059,4.524-16.08,12.531-19.304,22.259h-9.472c-9.172,0-16.608,7.436-16.608,16.608s7.436,16.608,16.608,16.608h7.531v11.965
			C16.145,327.211,0,343.887,0,364.271c0,20.937,17.034,37.971,37.971,37.971c11.416,0,18.661,0,28.567,0
			c3.271,35.294,33.039,63.024,69.172,63.024c36.134,0,65.902-27.729,69.173-63.024h120.196
			c3.271,35.294,33.039,63.024,69.172,63.024s65.901-27.729,69.172-63.024c17.69,0,12.138,0,29.817,0
			c9.172,0,16.608-7.436,16.608-16.608v-42.728C509.848,333.734,502.413,326.3,493.24,326.3z M36.318,368.731
			c-1.81-0.673-3.102-2.418-3.102-4.46c0-2.042,1.292-3.787,3.102-4.46V368.731z M212.565,202.843h50.425
			c37.668,0,72.167,20.076,90.947,52.04H212.565V202.843z M103.098,223.802c3.852-12.537,15.253-20.96,28.369-20.96h47.883v52.04
			H93.547L103.098,223.802z M135.711,432.05c-19.998,0-36.267-16.269-36.267-36.267c0-19.958,16.225-36.268,36.263-36.268
			c0.001,0,0.002,0,0.004,0c19.948,0,36.267,16.24,36.267,36.268C171.978,415.781,155.709,432.05,135.711,432.05z M394.251,432.05
			c-19.998,0-36.267-16.269-36.267-36.267c0-20.086,16.374-36.268,36.267-36.268c19.996,0,36.267,16.279,36.267,36.268
			C430.518,415.781,414.249,432.05,394.251,432.05z M451.845,356.919c-12.515-18.492-33.826-30.621-57.594-30.621
			c-28.187,0-53.461,17.159-64.133,42.728H199.844c-10.544-25.263-35.621-42.728-64.132-42.728h-0.001
			c-28.565,0-53.606,17.51-64.131,42.728h-2.044v-26.12v-49.733c0-2.843,2.341-5.075,5.075-5.075H241.44
			c-1.958,2.725-3.122,6.057-3.122,9.668c0,9.172,7.436,16.608,16.608,16.608h39.569c9.172,0,16.608-7.436,16.608-16.608
			c0-3.612-1.165-6.943-3.122-9.668c56.578,0,41.262,0,128.45,0c8.499,0.001,15.414,6.917,15.414,15.416
			C451.845,315.861,451.845,345.77,451.845,356.919z"/>
	</g>
</g>
<g>
	<g>
		<circle cx="394.25" cy="395.786" r="20.096"/>
	</g>
</g>
<g>
	<g>
		<circle cx="135.709" cy="395.786" r="20.096"/>
	</g>
</g>
</svg>