<svg xmlns="http://www.w3.org/2000/svg" xmlns:xlink="http://www.w3.org/1999/xlink" width="1440" viewBox="0 0 1440 809.999993" height="809.999993" preserveAspectRatio="xMidYMid meet"><defs><clipPath id="clip-0"><path d="M 27.691406 0 L 1412.191406 0 L 1412.191406 810 L 27.691406 810 Z M 27.691406 0 " clip-rule="nonzero"></path></clipPath></defs><g clip-path="url(#clip-0)"><path fill="rgb(73.329163%, 0%, 0%)" d="M 996.871094 810.082031 L 420.03125 810.082031 L 300.058594 675.890625 L 168.199219 675.890625 L 168.199219 514.851562 L 138.195312 514.851562 L 138.195312 674.308594 L 67.164062 674.308594 L 67.164062 458.425781 L 27.691406 420.535156 L 27.691406 229.089844 L 141.351562 229.089844 L 141.351562 407.496094 L 166.613281 407.496094 L 166.613281 229.089844 L 298.644531 229.089844 L 382.304688 102.785156 L 556.546875 102.785156 L 556.546875 87 L 373.425781 87 L 373.425781 0.167969 L 908.589844 0.167969 L 908.589844 87 L 736.875 87 L 736.875 102.785156 L 899.347656 102.785156 L 997.226562 200.671875 L 1161.183594 200.671875 L 1161.183594 287.503906 L 1208.539062 287.503906 L 1208.539062 203.828125 L 1336.132812 203.828125 L 1412.191406 299.351562 L 1412.191406 659.222656 L 1337.753906 726.40625 L 1210.121094 726.40625 L 1210.121094 671.152344 L 1146.847656 671.152344 Z M 434.164062 778.507812 L 984.5 778.507812 L 1134.476562 639.574219 L 1241.695312 639.574219 L 1241.695312 694.832031 L 1325.613281 694.832031 L 1380.617188 645.191406 L 1380.617188 310.386719 L 1320.910156 235.402344 L 1240.113281 235.402344 L 1240.113281 319.078125 L 1129.609375 319.078125 L 1129.609375 232.246094 L 984.148438 232.246094 L 886.269531 134.359375 L 705.300781 134.359375 L 705.300781 55.425781 L 877.015625 55.425781 L 877.015625 31.746094 L 404.996094 31.746094 L 404.996094 55.425781 L 588.121094 55.425781 L 588.121094 134.359375 L 399.265625 134.359375 L 315.59375 260.667969 L 198.1875 260.667969 L 198.1875 439.070312 L 109.777344 439.070312 L 109.777344 260.667969 L 59.265625 260.667969 L 59.265625 407.082031 L 98.738281 444.972656 L 98.738281 642.730469 L 106.621094 642.730469 L 106.621094 483.273438 L 199.769531 483.273438 L 199.769531 644.3125 L 314.179688 644.3125 Z M 439.648438 359.773438 L 450.179688 373.097656 C 440.9375 381.90625 427.179688 389.648438 406.5625 389.648438 C 370.886719 389.648438 344.886719 362.78125 344.886719 312.921875 C 344.886719 263.066406 373.246094 236.425781 406.34375 236.425781 C 425.253906 236.425781 436.425781 241.578125 448.027344 251.03125 L 436.855469 264.136719 C 427.832031 256.625 418.164062 253.183594 407.632812 253.183594 C 385.714844 253.183594 366.589844 268.433594 366.589844 312.921875 C 366.589844 355.691406 384.425781 372.449219 407.417969 372.449219 C 422.882812 372.449219 432.34375 366.222656 439.648438 359.773438 Z M 557.402344 387.0625 L 557.402344 317.652344 L 497.234375 317.652344 L 497.234375 387.0625 L 476.820312 387.0625 L 476.820312 239.003906 L 497.234375 239.003906 L 497.234375 300.898438 L 557.402344 300.898438 L 557.402344 239.003906 L 577.816406 239.003906 L 577.816406 387.0625 Z M 643.34375 255.335938 L 643.34375 303.679688 L 693.195312 303.679688 L 693.195312 320.015625 L 643.34375 320.015625 L 643.34375 370.738281 L 704.800781 370.738281 L 704.800781 387.0625 L 622.9375 387.0625 L 622.9375 239.003906 L 703.089844 239.003906 L 700.71875 255.335938 Z M 822.34375 359.773438 L 832.867188 373.097656 C 823.632812 381.90625 809.875 389.648438 789.246094 389.648438 C 753.582031 389.648438 727.582031 362.78125 727.582031 312.921875 C 727.582031 263.066406 755.941406 236.425781 789.039062 236.425781 C 807.949219 236.425781 819.117188 241.578125 830.722656 251.03125 L 819.550781 264.136719 C 810.523438 256.625 800.859375 253.183594 790.328125 253.183594 C 768.410156 253.183594 749.285156 268.433594 749.285156 312.921875 C 749.285156 355.691406 767.121094 372.449219 790.101562 372.449219 C 805.578125 372.449219 815.039062 366.222656 822.34375 359.773438 Z M 879.925781 387.0625 L 859.511719 387.0625 L 859.511719 239.003906 L 879.925781 239.003906 Z M 881 307.988281 L 937.304688 239.003906 L 960.507812 239.003906 L 904.421875 306.6875 L 964.589844 387.0625 L 939.445312 387.0625 Z M 374.535156 513.199219 L 374.535156 561.554688 L 424.390625 561.554688 L 424.390625 577.886719 L 374.535156 577.886719 L 374.535156 628.601562 L 435.992188 628.601562 L 435.992188 644.933594 L 354.132812 644.933594 L 354.132812 496.875 L 434.28125 496.875 L 431.910156 513.199219 Z M 545.367188 644.933594 L 487.351562 519.652344 L 486.484375 519.652344 C 486.917969 523.082031 489.277344 549.527344 489.277344 572.722656 L 489.277344 644.933594 L 470.160156 644.933594 L 470.160156 496.875 L 497.234375 496.875 L 555.898438 622.796875 L 556.753906 622.796875 C 556.328125 619.367188 553.960938 595.726562 553.960938 569.074219 L 553.960938 496.875 L 573.085938 496.875 L 573.085938 644.933594 Z M 608.964844 570.796875 C 608.964844 519.867188 640.777344 494.300781 673.433594 494.300781 C 693.84375 494.300781 705.882812 500.089844 717.699219 510.839844 L 705.664062 523.300781 C 696.636719 514.921875 686.539062 511.054688 673.648438 511.054688 C 651.945312 511.054688 630.667969 526.101562 630.667969 570.796875 C 630.667969 613.347656 645.0625 630.753906 671.070312 630.753906 C 680.953125 630.753906 690.835938 628.816406 699.214844 623.878906 L 699.214844 580.039062 L 671.289062 580.039062 L 668.917969 563.488281 L 719.410156 563.488281 L 719.410156 634.402344 C 705.882812 642.359375 690.402344 647.511719 669.566406 647.511719 C 632.820312 647.511719 608.964844 621.941406 608.964844 570.796875 Z M 755.292969 644.933594 L 755.292969 496.875 L 775.921875 496.875 L 775.921875 644.933594 Z M 896.25 644.933594 L 838.234375 519.652344 L 837.378906 519.652344 C 837.800781 523.082031 840.171875 549.527344 840.171875 572.722656 L 840.171875 644.933594 L 821.046875 644.933594 L 821.046875 496.875 L 848.125 496.875 L 906.78125 622.796875 L 907.636719 622.796875 C 907.214844 619.367188 904.84375 595.726562 904.84375 569.074219 L 904.84375 496.875 L 923.96875 496.875 L 923.96875 644.933594 Z M 989.507812 513.199219 L 989.507812 561.554688 L 1039.359375 561.554688 L 1039.359375 577.886719 L 989.507812 577.886719 L 989.507812 628.601562 L 1050.964844 628.601562 L 1050.964844 644.933594 L 969.09375 644.933594 L 969.09375 496.875 L 1049.242188 496.875 L 1046.882812 513.199219 L 989.507812 513.199219 " fill-opacity="1" fill-rule="evenodd"></path></g></svg>