<?xml version="1.0" ?><!-- Uploaded to: SVG Repo, www.svgrepo.com, Generator: SVG Repo Mixer Tools -->
<svg fill="#000000" width="800px" height="800px" viewBox="0 0 512 512" data-name="Layer 1" id="Layer_1" xmlns="http://www.w3.org/2000/svg"><title/><path d="M358.92,440.72c-2.43-5-8.29-15.42-16.38-19.51-4.52-11.93-11.45-20.93-18.7-24.55-3.91-11.87-11.08-21.1-18.93-24.77-2.17-8.87-7-16.76-13.49-21.74-4.88-3.74-10.31-5.42-15.29-4.74l-2.39.28L236.58,135a14,14,0,0,0,7.72-15L242,107a21.54,21.54,0,0,1,3.07-15A50.43,50.43,0,0,0,251.25,54h0A51.11,51.11,0,0,0,210,15.58a8.69,8.69,0,0,0-1.53-.23,50.62,50.62,0,0,0-56.44,59,50.59,50.59,0,0,0,18.52,31,21,21,0,0,1,7.85,12.74l2.32,13.15a14,14,0,0,0,12.41,11.48L229.8,350.83l-2.48.29-.15,0c-6.82.92-12.41,5.26-15.77,12.22-2.46,5.1-3.79,11.75-3.85,19.23v.12c0,.44,0,.88,0,1.32l-1.92.3-.19,0c-4.71.85-11.21,3.76-15.42,12.73-2.43,5.17-3.76,11.84-3.83,19.28v.17c0,.35,0,.7,0,1l-2.05.36L184,418c-4.66,1-11.09,4-15.24,13-2.43,5.22-3.75,11.9-3.83,19.32v.18c0,.28,0,.56,0,.84l-2.06.39-.25.05c-4.62,1-11,4.12-15.14,13.1-2.43,5.26-3.75,11.95-3.83,19.35v.18c0,2,.13,3.85.31,5.6a8,8,0,0,0,8,7.15H360.28a8,8,0,0,0,8-7.67c.07-1.76.11-3.34.11-4.83v-.33C368.43,468.82,365.07,453.35,358.92,440.72Zm-80.84-79.43.22,0c.24,0,1.5.14,3.4,1.6a21.56,21.56,0,0,1,6.3,8.63L278.55,373l-2-11.5ZM197.28,31.2a33.27,33.27,0,0,1,4-.29l2.15,12.16-10.56,1.86-2.15-12.18A35.43,35.43,0,0,1,197.28,31.2ZM180.43,92.76a34.66,34.66,0,0,1-6.52-47.64,35.07,35.07,0,0,1,2.22-2.75l2.33,13.22a8,8,0,0,0,7.87,6.61,8.36,8.36,0,0,0,1.4-.12L214,57.44a8,8,0,0,0,6.5-9.27l-2.32-13.12a34.65,34.65,0,0,1,17.44,22.58h0a34.51,34.51,0,0,1-4.21,26.06,37.47,37.47,0,0,0-5.19,26.13l1.93,11-32.09,5.66-2-11.15A37,37,0,0,0,180.43,92.76Zm40.49,45.56L259.29,355.9h0l3.31,18.78-12,2.11L247,356.4a.64.64,0,0,0,0-.07L209,140.43Zm4.9,232c1.4-2.92,2.78-3.21,3.42-3.3l3.35-.39,2.32,13.16-11.34,1.77A29.12,29.12,0,0,1,225.82,370.3Zm-21.29,33.59c1.52-3.23,3.1-3.65,3.71-3.77l89.38-13.93h.05c1.61.33,5.65,3.74,8.87,10.3L286.26,400l-18,3.15q-31.42,5.54-62.86,11l-3.12.54A29.76,29.76,0,0,1,204.53,403.89ZM181,448.29a29.9,29.9,0,0,1,2.27-10.61c1.55-3.35,3.21-3.85,3.86-4l21.08-3.7q31.43-5.5,62.86-11l18-3.16,27.66-4.85c1.47.63,5.06,3.82,8.43,10.37l-43.59,8.16Zm-21.19,32.82a28.94,28.94,0,0,1,2.22-9.58c1.59-3.45,3.27-4,3.94-4.15l160.24-30,9.47-1.77c4.59,2.43,15.92,20,16.71,45.49Z"/></svg>