<?xml version="1.0" encoding="iso-8859-1"?>
<!-- Uploaded to: SVG Repo, www.svgrepo.com, Generator: SVG Repo Mixer Tools -->
<svg fill="#000000" height="800px" width="800px" version="1.1" id="Layer_1" xmlns="http://www.w3.org/2000/svg" xmlns:xlink="http://www.w3.org/1999/xlink" 
	 viewBox="0 0 512 512" xml:space="preserve">
<g transform="translate(1 1)">
	<g>
		<path d="M509.506,257.53c-5.294-20.847-24.09-36.664-47.146-36.664h-56.32c-22.918,0-42.621,16.016-47.482,38.052
			c-0.743,1.29-1.158,2.847-1.158,4.615v5.973v28.16v8.533h-17.067v-25.6c0-5.12-3.413-8.533-8.533-8.533h-29.013
			c-3.901-3.344-8.534-5.952-13.653-7.364v-18.236h8.533c5.12,0,8.533-3.413,8.533-8.533V203.8h8.533
			c14.507,0,25.6-11.093,25.6-25.6c0-5.12-3.413-8.533-8.533-8.533c-5.12,0-8.533,3.413-8.533,8.533s-3.413,8.533-8.533,8.533H306.2
			v-25.6h8.533c14.507,0,25.6-11.093,25.6-25.6c0-5.12-3.413-8.533-8.533-8.533c-5.12,0-8.533,3.413-8.533,8.533
			s-3.413,8.533-8.533,8.533H306.2v-25.6h8.533c14.507,0,25.6-11.093,25.6-25.6c0-5.12-3.413-8.533-8.533-8.533
			c-5.12,0-8.533,3.413-8.533,8.533c0,5.12-3.413,8.533-8.533,8.533H306.2V75.8h34.133c5.12,0,8.533-3.413,8.533-8.533V33.133
			c0-5.12-3.413-8.533-8.533-8.533h-17.067v-8.533c0-5.12-3.413-8.533-8.533-8.533s-8.533,3.413-8.533,8.533V24.6h-17.067V7.533
			c0-5.12-3.413-8.533-8.533-8.533s-8.533,3.413-8.533,8.533V24.6h-25.6v-8.533c0-5.12-3.413-8.533-8.533-8.533
			s-8.533,3.413-8.533,8.533V24.6h-8.533c-5.12,0-8.533,3.413-8.533,8.533v34.133c0,5.12,3.413,8.533,8.533,8.533H255v25.6h-8.533
			c-14.507,0-25.6,11.093-25.6,25.6c0,5.12,3.413,8.533,8.533,8.533s8.533-3.413,8.533-8.533s3.413-8.533,8.533-8.533H255v25.6
			h-8.533c-14.507,0-25.6,11.093-25.6,25.6c0,5.12,3.413,8.533,8.533,8.533s8.533-3.413,8.533-8.533s3.413-8.533,8.533-8.533H255
			v25.6h-8.533c-14.507,0-25.6,11.093-25.6,25.6c0,5.12,3.413,8.533,8.533,8.533s8.533-3.413,8.533-8.533
			c0-5.12,3.413-8.533,8.533-8.533H255v34.133c0,5.12,3.413,8.533,8.533,8.533h8.533v18.154c-14.679,3.814-25.6,17.216-25.6,33.046
			c0,18.773,15.36,34.133,34.133,34.133c2.56,0,5.973,0,8.533-0.853v17.92H255c-7.567,0-14.578,2.498-20.253,6.707l-223.8-83.507
			c-4.267-1.707-9.387,0.853-11.093,5.12s0.853,9.387,5.12,11.093l218.867,80.85c-0.768,1.712-1.406,3.492-1.886,5.337H7.533
			C2.413,374.467-1,377.88-1,383s3.413,8.533,8.533,8.533h214.421c3.814,14.679,17.216,25.6,33.046,25.6h34.133v25.6
			c0,5.12,3.413,8.533,8.533,8.533H357.4v11.093c0,7.849,1.891,15.316,5.246,21.946c0.132,0.269,0.268,0.535,0.405,0.8
			c0.073,0.138,0.144,0.276,0.219,0.412c6.248,11.835,17.278,20.488,30.336,23.888c0.137,0.036,0.276,0.068,0.414,0.103
			c0.585,0.147,1.172,0.284,1.764,0.41c0.246,0.052,0.493,0.102,0.741,0.15c0.499,0.098,1,0.188,1.504,0.27
			c0.295,0.048,0.59,0.096,0.886,0.139c0.479,0.069,0.96,0.129,1.443,0.184c0.306,0.035,0.611,0.073,0.92,0.103
			c0.518,0.05,1.04,0.086,1.562,0.119c0.269,0.017,0.536,0.041,0.806,0.054c0.794,0.038,1.592,0.061,2.394,0.061h11.093H459.8h2.56
			c0.817,0,1.629-0.024,2.438-0.064c0.045-0.002,0.09-0.007,0.136-0.009c16.966-0.876,31.914-10.373,39.798-25.022
			c3.975-7.017,6.268-15.059,6.268-23.545v-29.013v-34.133v-33.28V331.8v-34.987v-27.307v-6.827
			C511,260.661,510.463,258.914,509.506,257.53z M229.4,41.667h102.4v17.067h-34.133h-34.133H229.4V41.667z M272.067,75.8h17.067
			v25.6h-17.067V75.8z M272.067,118.467h17.067v25.6h-17.067V118.467z M272.067,161.133h17.067v25.6h-17.067V161.133z
			 M289.133,203.8v25.6h-17.067v-25.6H289.133z M493.933,425.667H464.92l8.533-17.067h20.48V425.667z M493.933,357.4H464.92
			l-8.533-17.067h37.547V357.4z M493.933,289.133h-20.48l8.533-17.067h11.947V289.133z M406.04,237.933h56.32
			c11.694,0,22.185,6.412,27.632,16.213h-13.125c-3.413,0-5.973,2.56-7.68,5.12L452.12,293.4c-1.707,2.56-1.707,5.973,0,8.533
			s5.12,4.267,7.68,4.267h34.133v17.067h-51.2c-2.56,0-6.827,0.853-7.68,3.413s-1.707,5.973,0,8.533l17.067,34.133
			c1.707,3.413,4.267,5.12,7.68,5.12h34.133v16.213h-25.6c-3.413,0-5.973,2.56-7.68,5.12l-17.067,34.133
			c-1.707,2.56-1.707,5.973,0,8.533s5.12,4.267,7.68,4.267h42.667V459.8h-51.2c-2.56,0-6.827,0.853-7.68,3.413s-1.707,5.973,0,8.533
			l11.093,22.187h-24.32l-14.08-28.16c-1.707-3.413-4.267-5.12-7.68-5.12h-25.6v-17.92H408.6c3.413,0,5.973-1.707,7.68-4.267
			l17.067-34.133c1.707-2.56,1.707-5.973,0-8.533c-1.707-2.56-5.12-4.267-7.68-4.267h-51.2v-17.067h42.667
			c2.56,0,6.827-0.853,7.68-3.413s1.707-5.973,0-8.533l-17.067-34.133c-1.707-3.413-4.267-5.12-7.68-5.12h-25.6v-8.533V306.2h42.667
			c3.413,0,5.973-1.707,7.68-4.267L441.88,267.8c1.707-2.56,1.707-5.973,0-8.533c-1.707-2.56-5.12-4.267-7.68-4.267h-56.21
			C383.162,244.968,393.564,237.933,406.04,237.933z M488.093,480.675c-2.611,3.577-5.892,6.63-9.671,8.907
			c-0.13,0.077-0.26,0.154-0.392,0.229c-0.248,0.145-0.502,0.28-0.755,0.418c-3.718,1.988-7.908,3.253-12.409,3.599l-8.48-16.961
			h34.023C489.727,478.192,488.952,479.463,488.093,480.675z M385.156,486.068c-2.25-2.022-4.243-4.365-5.913-6.94
			c-0.459-0.732-0.885-1.488-1.284-2.262h16.134l8.433,16.866C395.966,493.003,389.934,490.259,385.156,486.068z M374.467,340.333
			h20.48l8.533,17.067h-29.013V340.333z M374.467,408.6h37.547l-8.533,17.067h-29.013V408.6z M374.467,272.067h46.08l-8.533,17.067
			h-37.547V272.067z M255,400.067c-9.387,0-17.067-7.68-17.067-17.067c0-4.685,1.914-8.945,4.998-12.037
			c0.089-0.086,0.186-0.16,0.271-0.25c3.071-2.951,7.228-4.78,11.797-4.78h34.133v34.133H255z M306.2,434.2v-25.6v-51.2v-40.96
			c0-3.413-1.707-5.973-5.12-7.68c-3.413-0.853-6.827-0.853-9.387,1.707c-1.707,1.707-5.973,4.267-11.093,4.267
			c-9.387,0-17.067-7.68-17.067-17.067s7.68-17.067,17.067-17.067c5.12,0,9.387,1.707,12.8,5.973c0.853,1.707,3.413,2.56,5.973,2.56
			h23.893v25.6c0,5.12,3.413,8.533,8.533,8.533h25.6v8.533v34.133v34.133V434.2H306.2z"/>
	</g>
</g>
</svg>