<?xml version="1.0" encoding="utf-8"?>
<!-- Svg Vector Icons : http://www.onlinewebfonts.com/icon -->
<!DOCTYPE svg PUBLIC "-//W3C//DTD SVG 1.1//EN" "http://www.w3.org/Graphics/SVG/1.1/DTD/svg11.dtd">
<svg version="1.1" xmlns="http://www.w3.org/2000/svg" xmlns:xlink="http://www.w3.org/1999/xlink" x="0px" y="0px" viewBox="0 0 1000 1000" enable-background="new 0 0 1000 1000" xml:space="preserve">
<metadata> Svg Vector Icons : http://www.onlinewebfonts.com/icon </metadata>
<g><g transform="translate(0.000000,511.000000) scale(0.100000,-0.100000)"><path d="M7714.7,4336.8c-45.6-24.8-118-76.6-161.5-118c-72.4-70.4-490.5-770-565-945.9c-39.3-97.3-45.6-322.9-8.3-434.6c43.5-128.3,496.7-898.3,575.4-974.9c64.2-62.1,211.1-144.9,320.8-182.1c33.1-10.3,35.2-118,35.2-1869c0-1763.4,2.1-1862.8,39.3-1943.5c45.5-101.4,161.4-200.8,269.1-233.9c101.4-29,316.7-29,418.1,0c107.6,33.1,213.2,126.3,264.9,231.8c43.5,89,43.5,105.6,43.5,1955.9c0,1786.2,2.1,1866.9,37.2,1866.9c68.3,0,242.2,101.4,327,190.4c84.9,89,517.4,817.6,565.1,947.9c41.4,122.1,28.9,370.5-26.9,486.4c-91.1,194.6-469.8,827.9-536.1,896.2c-66.2,68.3-236,169.7-287.7,169.7c-20.7,0-26.9-138.7-24.8-672.7l2.1-672.7l-97.3-171.8c-60-103.5-124.2-188.3-167.6-217.3c-66.3-45.5-87-47.6-333.3-41.4c-310.5,8.3-318.7,12.4-463.6,277.3l-91.1,167.7v666.5c0,521.6-6.2,664.4-26.9,664.4C7807.8,4380.2,7760.2,4361.6,7714.7,4336.8z M8670.9-1696.6l80.7-136.6l-68.3-132.4c-39.3-72.4-76.6-134.5-84.9-140.8c-8.3-4.1-86.9-12.4-175.9-14.5l-161.4-8.3l-82.8,140.7l-82.8,138.7l78.6,144.9l78.7,144.9h167.6h169.7L8670.9-1696.6z"/><path d="M3554.4,3208.7c-796.9-76.6-1359.8-279.4-1962.1-705.8c-227.7-161.4-654-591.9-825.8-834.1C482.9,1271.4,257.3,751.9,145.5,240.7C104.1,48.2,100-32.5,100-473.4c0-438.8,4.1-521.6,45.5-714.1c186.3-854.8,620.9-1583.4,1266.7-2121.5C3090.8-4706,5607.6-4341.8,6824.7-2522.4c1026.6,1531.6,774.1,3541.4-602.3,4793.6c-515.4,467.8-1190.1,788.6-1891.8,896.2C4125.7,3200.5,3695.2,3221.2,3554.4,3208.7z M2260.8,1223.8v-175.9h-180.1h-182.1l175.9,175.9c97.3,97.3,178,175.9,180.1,175.9C2258.8,1399.8,2260.8,1321.1,2260.8,1223.8z M3533.7,1209.4c-4.1-14.5-47.6-188.3-93.1-385c-84.9-345.7-89-358.1-153.2-389.1c-35.2-18.6-118-76.6-184.2-126.3l-122.1-95.2l-374.6,16.6c-207,8.3-380.8,18.6-387.1,22.8c-18.6,18.6,103.5,225.6,209,356c217.3,271.1,569.2,494.7,908.6,583.7C3523.4,1240.4,3546.2,1242.5,3533.7,1209.4z M4324.4,1151.4c322.9-107.6,643.7-347.7,844.5-631.3c91.1-128.3,163.5-256.7,151.1-269.1c-4.1-4.1-175.9-12.4-380.8-20.7l-374.6-16.6l-136.6,105.6c-74.5,58-155.2,109.7-178,118c-22.8,6.2-49.7,41.4-62.1,78.6c-29,91.1-188.3,689.2-188.3,705.8C3999.4,1244.5,4142.2,1213.5,4324.4,1151.4z M3920.8-32.5c45.5-12.4,122.1-60,169.7-103.5c219.4-192.5,217.3-525.7-2.1-720.3c-192.5-167.6-440.9-167.6-633.3,0C3063.9-512.7,3419.9,118.6,3920.8-32.5z M2416.1-400.9c312.5-190.4,314.6-192.5,329.1-296c8.3-47.6,37.3-140.7,64.2-209.1l49.7-120l-124.2-325c-68.3-178-128.3-335.3-132.5-351.9c-26.9-70.4-271.1,242.2-393.3,496.7c-113.8,240.1-155.2,438.8-155.2,732.7c0,138.7,6.2,258.7,14.5,264.9c6.2,8.3,33.1,2.1,55.9-12.4C2149.1-237.4,2279.5-318.1,2416.1-400.9z M5481.4-556.2c-16.6-325-111.8-616.8-283.6-873.4c-78.6-118-217.3-275.3-240.1-275.3c-10.3,0-74.5,153.2-144.9,339.4L4684.5-1026l49.7,120c26.9,68.3,55.9,161.5,64.2,209.1c6.2,47.6,24.8,99.4,41.4,111.8c16.6,12.4,161.4,105.6,322.9,204.9l296,182.1l16.5-74.5C5485.5-316.1,5487.6-442.3,5481.4-556.2z M4291.3-1769l273.2-233.9l-103.5-47.6c-407.7-186.3-968.6-188.3-1380.5-6.2c-118,53.8-138.7,20.7,207,318.8l242.2,209l244.2-2.1l244.2-4.2L4291.3-1769z"/></g></g>
</svg>