<svg version="1.1" id="Layer_1" xmlns="http://www.w3.org/2000/svg" xmlns:xlink="http://www.w3.org/1999/xlink" x="0px" y="0px"
	 viewBox="0 0 60 60" style="enable-background:new 0 0 60 60;" xml:space="preserve">
<style type="text/css">
	.st0{fill:#96181A;}
</style>
<g>
	<path class="st0" d="M52.8,37.3v-5.2l-6.2-4.1h-0.9l-2.3-6.2h-6L35,27.9H16L3.1,21.7H1V59h2.1L16,52.8h30.6l6.2-4.1v-5.2H59v-6.2
		H52.8z M38.8,23.8h3.1l1.6,4.1h-6.2L38.8,23.8z M50.7,47.5l-4.8,3.2H15.4l-12.4,6V24l12.4,6h30.5l4.8,3.2V47.5z M56.9,41.4h-4.1
		v-2.1h4.1V41.4z"/>
	<path class="st0" d="M23.7,40.4c0-0.2-0.1-0.5-0.1-0.7l2.1-1.6c-0.3-0.7-0.7-1.5-1.2-2.1l-2.4,1c-0.4-0.3-0.8-0.6-1.3-0.8l-0.3-2.6
		c-0.4-0.1-0.8-0.1-1.2-0.1s-0.8,0-1.2,0.1l-0.3,2.6c-0.5,0.2-0.9,0.5-1.2,0.8l-2.5-1c-0.5,0.6-0.9,1.3-1.2,2.1l2.1,1.6
		c0,0.2-0.1,0.5-0.1,0.7c0,0.2,0,0.5,0.1,0.7l-2.1,1.6c0.3,0.7,0.7,1.5,1.2,2.1l2.5-1c0.4,0.3,0.8,0.6,1.2,0.8l0.3,2.6
		c0.8,0.1,1.6,0.1,2.4,0l0.3-2.6c0.5-0.2,0.9-0.5,1.3-0.8l2.4,1c0.5-0.6,0.9-1.3,1.2-2.1l-2.1-1.6C23.6,40.9,23.7,40.6,23.7,40.4z
		 M19.3,42.7c-1.3,0-2.3-1-2.3-2.3s1-2.3,2.3-2.3s2.3,1,2.3,2.3S20.6,42.7,19.3,42.7z"/>
	<circle class="st0" cx="19.3" cy="40.4" r="1.3"/>
	<path class="st0" d="M41.8,38.9c-0.2-0.9-0.5-1.7-1-2.4l1.6-2c-0.5-0.7-1-1.2-1.7-1.7l-2,1.6c-0.7-0.5-1.5-0.8-2.4-1L36,30.8
		c-0.4-0.1-0.8-0.1-1.2-0.1c-0.4,0-0.8,0-1.2,0.1l-0.3,2.6c-0.9,0.2-1.7,0.5-2.4,1l-2-1.6c-0.7,0.5-1.2,1-1.7,1.7l1.6,2
		c-0.5,0.7-0.8,1.5-1,2.4l-2.6,0.3c-0.1,0.8-0.1,1.5,0,2.3l2.6,0.3c0.2,0.9,0.5,1.7,1,2.4l-1.6,2c0.5,0.7,1,1.2,1.7,1.7l2-1.6
		c0.7,0.5,1.5,0.8,2.4,1l0.3,2.6c0.8,0.1,1.5,0.1,2.3,0l0.3-2.6c0.9-0.2,1.7-0.5,2.4-1l2,1.6c0.7-0.5,1.2-1,1.7-1.7l-1.6-2
		c0.5-0.7,0.8-1.5,1-2.4l2.6-0.3c0.1-0.8,0.1-1.5,0-2.3L41.8,38.9z M34.8,45.5c-2.8,0-5.1-2.3-5.1-5.1c0-2.8,2.3-5.1,5.1-5.1
		c2.8,0,5.1,2.3,5.1,5.1C39.9,43.2,37.6,45.5,34.8,45.5z"/>
	<path class="st0" d="M34.8,36.7c-2,0-3.7,1.7-3.7,3.7s1.7,3.7,3.7,3.7c2,0,3.7-1.7,3.7-3.7S36.8,36.7,34.8,36.7z M34.8,42
		c-0.9,0-1.6-0.7-1.6-1.6s0.7-1.6,1.6-1.6c0.9,0,1.6,0.7,1.6,1.6S35.7,42,34.8,42z"/>
	<path class="st0" d="M42.6,15.4l6.1-6.7c0.6,0.3,1.2,0.5,1.9,0.5c2.3,0,4.1-1.8,4.1-4.1c0-2.3-1.8-4.1-4.1-4.1
		c-2.3,0-4.1,1.8-4.1,4.1c0,0.8,0.3,1.6,0.7,2.2l-6.5,7.2l-1.2,6.2h2.1L42.6,15.4z M50.6,3.1c1.1,0,2,0.9,2,2c0,1.1-0.9,2-2,2
		c-1.1,0-2-0.9-2-2C48.6,4,49.5,3.1,50.6,3.1z"/>
</g>
</svg>
