<?xml version="1.0" encoding="iso-8859-1"?>
<!-- Uploaded to: SVG Repo, www.svgrepo.com, Generator: SVG Repo Mixer Tools -->
<svg fill="#000000" height="800px" width="800px" version="1.1" id="Layer_1" xmlns="http://www.w3.org/2000/svg" xmlns:xlink="http://www.w3.org/1999/xlink" 
	 viewBox="0 0 512 512" xml:space="preserve">
<g>
	<g>
		<path d="M458.321,113.999h-10.794V77.461c0-9.173-7.437-16.609-16.609-16.609s-16.609,7.437-16.609,16.609v36.538h-10.795
			c-29.598,0-53.679,24.08-53.679,53.679v229.796c0,29.598,24.08,53.679,53.679,53.679h54.807c29.598,0,53.679-24.08,53.679-53.679
			V167.677C512,138.079,487.92,113.999,458.321,113.999z M478.782,397.474c0,11.281-9.178,20.46-20.46,20.46h-54.807
			c-11.281,0-20.46-9.178-20.46-20.46V167.677c0-11.281,9.178-20.46,20.46-20.46h54.807c11.281,0,20.46,9.178,20.46,20.46V397.474z"
			/>
	</g>
</g>
<g>
	<g>
		<path d="M108.487,184.865H97.692V77.461c0-9.173-7.437-16.609-16.609-16.609s-16.609,7.437-16.609,16.609v107.404H53.679
			C24.08,184.865,0,208.945,0,238.543v158.929c0,29.598,24.08,53.679,53.679,53.679h54.808c29.598,0,53.679-24.08,53.679-53.679
			V238.543C162.165,208.945,138.085,184.865,108.487,184.865z M128.948,397.474h-0.001c0,11.281-9.178,20.46-20.46,20.46H53.679
			c-11.282-0.001-20.46-9.179-20.46-20.46V238.543c0-11.281,9.178-20.46,20.46-20.46h54.808c11.281,0,20.46,9.178,20.46,20.46
			V397.474z"/>
	</g>
</g>
<g>
	<g>
		<path d="M283.536,184.865h-10.52l-0.277-16.34c-0.043-2.523-0.661-5.006-1.806-7.255l-46.506-91.345
			c-4.162-8.175-14.165-11.427-22.337-7.266c-8.175,4.162-11.427,14.162-7.266,22.337l44.765,87.926l0.203,11.942h-11.064
			c-29.598,0-53.679,24.08-53.679,53.679v158.93c0,29.598,24.08,53.679,53.679,53.679h54.808c29.598,0,53.679-24.08,53.679-53.679
			V238.543C337.215,208.945,313.135,184.865,283.536,184.865z M303.997,397.474c0,11.281-9.178,20.46-20.46,20.46h-54.808
			c-11.281,0-20.46-9.178-20.46-20.46V238.543c0-11.281,9.178-20.46,20.46-20.46h54.808c11.281,0,20.46,9.178,20.46,20.46V397.474z"
			/>
	</g>
</g>
<g>
	<g>
		<path d="M448.301,237.73h-34.768c-9.173,0-16.609,7.437-16.609,16.609s7.437,16.609,16.609,16.609h34.768
			c9.173,0,16.609-7.437,16.609-16.609S457.474,237.73,448.301,237.73z"/>
	</g>
</g>
<g>
	<g>
		<path d="M448.301,179.875h-34.768c-9.173,0-16.609,7.437-16.609,16.609s7.437,16.609,16.609,16.609h34.768
			c9.173,0,16.609-7.437,16.609-16.609S457.474,179.875,448.301,179.875z"/>
	</g>
</g>
<g>
	<g>
		<path d="M448.301,295.586h-34.768c-9.173,0-16.609,7.437-16.609,16.609s7.437,16.609,16.609,16.609h34.768
			c9.173,0,16.609-7.437,16.609-16.609S457.474,295.586,448.301,295.586z"/>
	</g>
</g>
<g>
	<g>
		<path d="M448.301,353.441h-34.768c-9.173,0-16.609,7.437-16.609,16.609s7.437,16.609,16.609,16.609h34.768
			c9.173,0,16.609-7.437,16.609-16.609S457.474,353.441,448.301,353.441z"/>
	</g>
</g>
<g>
	<g>
		<path d="M273.849,246.865H240.63c-9.173,0-16.609,7.437-16.609,16.609s7.437,16.609,16.609,16.609h33.219
			c9.173,0,16.609-7.437,16.609-16.609S283.023,246.865,273.849,246.865z"/>
	</g>
</g>
<g>
	<g>
		<path d="M273.849,301.399H240.63c-9.173,0-16.609,7.437-16.609,16.609s7.437,16.609,16.609,16.609h33.219
			c9.173,0,16.609-7.437,16.609-16.609S283.023,301.399,273.849,301.399z"/>
	</g>
</g>
<g>
	<g>
		<path d="M273.849,355.933H240.63c-9.173,0-16.609,7.437-16.609,16.609s7.437,16.609,16.609,16.609h33.219
			c9.173,0,16.609-7.437,16.609-16.609S283.023,355.933,273.849,355.933z"/>
	</g>
</g>
<g>
	<g>
		<path d="M96.684,246.865H63.465c-9.173,0-16.609,7.437-16.609,16.609s7.437,16.609,16.609,16.609h33.219
			c9.173,0,16.609-7.437,16.609-16.609S105.857,246.865,96.684,246.865z"/>
	</g>
</g>
<g>
	<g>
		<path d="M96.684,301.399H63.465c-9.173,0-16.609,7.437-16.609,16.609s7.437,16.609,16.609,16.609h33.219
			c9.173,0,16.609-7.437,16.609-16.609S105.857,301.399,96.684,301.399z"/>
	</g>
</g>
<g>
	<g>
		<path d="M96.684,355.933H63.465c-9.173,0-16.609,7.437-16.609,16.609s7.437,16.609,16.609,16.609h33.219
			c9.173,0,16.609-7.437,16.609-16.609S105.857,355.933,96.684,355.933z"/>
	</g>
</g>
</svg>